<?xml version="1.0" encoding="UTF-8"?>
<svg xmlns="http://www.w3.org/2000/svg" viewBox="0 0 360 180" width="360" height="180">
  <path fill="#1a2838" stroke="none" d="M241.2,54.3L243.0,54.6L244.0,54.0L244.7,52.9L245.7,52.3L246.5,52.6L247.8,52.9L248.9,52.7L249.5,52.4L250.3,52.3L250.8,51.5L251.2,52.0L251.4,52.9L252.2,53.1L253.3,52.5L255.0,52.6L254.6,53.0L252.9,53.3L251.3,53.9L251.6,54.8L251.2,55.7L249.9,56.0L249.7,56.9L249.3,58.1L248.6,58.3L247.7,58.7L246.4,59.3L245.0,60.5L244.1,60.7L242.5,60.7L241.8,59.3L240.9,58.5L240.5,57.0L240.5,56.3L241.2,54.3ZM196.3,95.9L196.9,97.2L197.5,98.1L198.5,97.8L199.2,97.7L200.0,97.1L200.6,96.9L201.7,97.3L201.9,98.3L201.9,99.5L202.2,101.1L202.8,101.0L203.9,100.9L203.9,101.7L203.9,102.6L201.9,102.9L202.6,106.9L201.4,107.9L198.3,107.3L194.1,107.4L192.8,106.9L191.7,107.3L191.8,105.8L192.2,104.4L192.7,103.1L193.6,102.0L193.7,100.7L193.1,99.8L192.9,99.0L192.9,97.6L192.2,96.3L192.7,96.0L193.4,95.9L196.3,95.9ZM192.4,95.7L191.9,95.0L192.6,94.4L192.6,95.0L192.4,95.7ZM200.6,48.1L200.6,48.9L201.0,49.4L200.6,49.9L200.0,50.3L199.4,49.7L199.4,48.6L199.4,48.1L199.7,47.3L200.1,47.4L200.5,47.8L200.6,48.1ZM231.6,65.8L231.8,66.0L233.4,65.8L234.7,65.2L236.1,63.9L236.4,65.1L235.8,65.7L235.5,66.1L235.2,66.9L235.0,67.5L231.6,66.0L231.6,65.8ZM114.5,145.2L113.0,144.9L111.4,144.9L111.8,143.1L113.5,144.4L114.5,145.2ZM115.0,112.1L116.0,112.0L117.3,112.2L120.0,114.0L122.2,115.2L121.4,117.1L123.5,117.5L125.2,116.6L125.9,115.5L126.4,116.9L124.8,117.9L122.4,120.2L121.9,122.0L121.7,123.3L121.5,124.4L122.6,126.0L123.2,126.9L120.8,128.7L117.7,128.8L117.7,130.2L117.3,131.0L115.3,130.8L115.0,132.1L116.2,132.0L115.6,132.9L114.7,134.5L113.5,135.0L112.4,136.3L114.4,137.2L112.8,138.7L111.3,140.3L111.2,141.8L111.4,142.3L108.1,142.0L107.7,140.7L106.7,140.4L107.4,138.9L107.6,137.7L108.4,135.6L108.8,134.8L108.2,134.2L108.1,133.4L108.3,132.1L108.3,129.8L109.2,128.6L108.9,126.7L109.6,125.2L110.2,123.3L109.5,121.4L110.0,119.4L111.0,117.5L111.4,116.5L111.6,114.5L113.0,113.0L113.7,111.8L115.0,112.1ZM223.6,48.9L225.2,49.0L225.4,49.4L225.6,50.1L226.5,50.5L226.1,51.3L225.7,50.5L225.0,50.3L224.4,50.0L223.8,49.3L223.6,48.9ZM120.4,170.0L119.8,171.0L115.5,170.9L114.3,170.5L116.0,170.3L118.9,170.0L120.4,170.0ZM20.8,169.5L17.6,169.3L16.9,168.9L16.3,168.6L18.8,168.4L20.5,169.0L20.8,169.5ZM134.8,168.0L136.5,169.1L136.7,170.0L133.5,170.6L129.5,171.0L125.8,170.6L128.1,169.9L129.6,169.2L130.7,168.5L131.3,168.0L133.3,167.8L134.8,168.0ZM58.8,163.5L61.3,163.5L59.8,164.1L57.4,163.7L57.6,163.3L58.8,163.5ZM54.4,163.5L55.4,163.8L52.7,163.5L53.4,163.2L54.4,163.5ZM81.0,161.9L83.2,162.0L83.0,162.4L80.6,162.4L78.2,162.3L77.7,161.9L79.6,161.9L81.0,161.9ZM111.5,161.0L111.5,161.8L110.0,162.3L107.6,162.5L106.9,162.2L105.0,162.1L106.1,161.3L106.8,161.2L108.2,160.7L108.3,159.5L109.7,158.9L110.5,159.6L111.3,160.5L111.5,161.0ZM121.4,154.2L120.2,154.2L118.7,154.5L117.5,155.1L117.4,155.9L117.2,156.4L115.7,156.8L114.5,157.6L114.7,158.4L116.0,158.9L117.2,159.6L117.7,160.4L118.5,161.1L118.9,162.4L119.3,163.2L118.6,164.1L116.7,164.6L115.6,165.3L112.8,165.8L110.2,166.2L107.8,166.7L104.4,166.7L103.1,167.1L105.7,167.6L105.2,168.2L102.1,168.4L102.0,169.2L103.4,169.9L106.8,170.4L110.0,171.0L114.3,171.5L118.4,172.0L121.3,172.8L123.0,172.9L126.4,172.3L130.2,171.7L135.2,171.8L137.8,171.7L141.8,171.3L145.6,170.9L149.9,170.6L150.7,170.0L150.3,169.3L146.3,169.5L144.1,169.1L144.7,168.1L147.8,167.7L150.2,167.1L152.5,166.5L154.5,166.3L157.5,166.1L160.0,165.7L162.5,165.1L164.3,164.5L163.5,163.9L164.6,163.1L166.7,162.7L168.5,162.0L169.7,161.3L171.4,161.7L172.6,161.3L174.2,161.0L175.7,161.5L178.2,161.2L179.8,161.6L181.9,161.1L184.1,160.9L186.3,160.5L187.7,159.9L189.5,160.0L190.8,160.8L192.4,160.2L194.7,160.0L195.9,160.0L198.2,159.9L200.4,160.0L201.9,160.4L203.7,160.5L206.0,160.5L208.1,160.3L210.0,159.9L212.0,159.7L213.3,158.8L214.9,158.7L216.2,159.2L217.9,159.5L219.7,159.5L220.9,158.9L222.9,158.5L224.9,158.1L226.5,157.6L228.3,157.4L229.9,157.1L230.9,156.5L232.6,156.1L234.5,155.8L236.4,156.0L237.3,156.7L238.7,157.3L240.6,157.7L242.4,158.0L244.1,157.4L246.0,157.7L247.9,157.9L249.7,159.0L249.6,159.7L247.8,160.3L249.1,160.7L248.4,161.4L248.7,162.2L251.0,162.1L251.9,161.3L253.1,160.7L253.9,159.9L255.6,159.7L257.6,159.5L258.4,158.7L260.1,158.1L261.5,157.5L262.8,157.2L264.7,157.2L266.8,157.2L268.0,156.2L268.8,157.0L270.6,157.2L272.6,157.2L274.2,157.1L275.8,157.4L277.8,157.2L279.7,157.2L280.9,156.6L282.8,155.6L284.2,156.0L286.2,156.9L288.1,157.0L290.2,156.7L291.7,156.1L293.6,155.9L294.9,156.4L296.7,156.7L298.6,157.2L300.9,157.2L302.3,156.6L304.1,156.6L306.1,156.6L307.9,156.7L309.7,156.6L311.8,156.4L313.9,156.3L315.0,155.7L315.7,155.6L316.2,156.4L317.5,157.0L319.9,156.9L322.1,156.8L324.4,156.8L326.2,157.2L326.6,157.9L328.8,158.4L331.5,158.7L333.6,158.9L335.2,158.8L336.8,159.4L339.2,159.6L340.8,160.2L342.7,160.7L344.9,160.8L347.3,160.8L349.5,161.2L351.2,161.7L350.6,162.4L349.8,163.2L348.0,163.8L346.1,164.4L345.0,165.1L343.8,165.9L343.5,166.7L344.1,167.5L344.7,168.2L347.0,168.8L343.7,169.1L340.9,169.7L340.3,170.6L341.1,171.3L342.5,172.1L345.1,172.7L348.9,173.3L352.3,174.0L353.2,174.4L358.3,174.5L0.1,174.7L2.7,174.5L3.9,174.1L4.2,174.1L6.9,174.1L10.0,173.9L11.5,174.2L15.8,174.8L21.9,175.4L29.1,175.3L34.1,175.3L37.1,174.6L29.9,174.3L26.4,173.7L27.0,172.8L27.1,172.0L24.7,171.4L25.6,171.2L29.4,171.3L32.8,170.7L33.2,169.9L30.5,169.4L26.6,169.2L24.0,168.7L21.9,168.0L22.1,167.0L24.7,167.2L27.1,167.5L30.0,167.2L32.4,166.6L33.9,166.1L33.8,165.4L35.7,165.5L38.4,165.1L41.1,165.0L43.6,164.5L45.6,164.4L47.7,164.3L50.4,164.5L53.1,164.4L56.0,164.5L58.9,164.5L61.3,164.2L63.8,164.2L66.1,163.7L67.1,164.4L68.7,164.4L71.3,164.9L73.9,165.1L76.6,165.0L79.4,165.3L79.2,164.5L77.5,164.1L76.7,163.4L77.1,162.8L79.7,162.8L81.9,163.2L83.7,163.6L86.3,163.3L88.6,163.4L90.8,162.6L92.7,163.2L94.8,163.5L97.3,163.6L99.3,163.5L100.7,163.5L103.1,163.6L105.1,163.9L107.2,163.4L109.8,163.1L112.0,162.8L112.9,162.0L112.4,161.2L111.8,160.5L111.5,159.7L112.0,159.0L112.6,158.1L112.3,157.3L113.3,156.6L114.6,155.9L115.8,155.2L117.0,154.6L118.6,154.3L120.1,154.0L121.4,153.4L122.8,153.5L121.4,154.2ZM248.9,138.6L250.5,139.1L250.3,139.7L248.7,139.2L248.9,138.6ZM325.4,130.8L326.9,131.0L328.3,130.9L328.0,132.4L327.6,132.9L326.7,133.6L325.4,132.7L324.7,131.2L325.4,130.8ZM323.6,103.8L324.6,104.2L325.4,105.0L325.5,106.3L325.9,106.9L326.1,108.3L327.5,109.5L328.8,110.4L329.3,111.3L330.1,112.1L330.7,112.4L331.6,114.1L332.9,115.3L333.2,116.6L333.6,118.1L333.3,119.5L333.1,120.9L332.5,122.6L331.3,123.8L330.7,125.2L330.1,126.4L330.0,127.4L328.3,127.8L326.9,128.6L325.5,128.6L325.0,127.9L323.6,128.8L322.2,128.4L320.6,128.0L319.8,126.6L319.1,125.7L318.4,125.1L317.7,125.1L317.4,124.7L317.9,123.6L317.0,123.8L316.0,124.9L315.2,123.9L314.1,122.8L313.0,122.0L311.3,121.5L308.2,121.9L306.1,122.2L304.2,123.0L303.7,123.9L302.2,124.0L300.6,123.9L299.3,124.5L298.5,124.7L297.3,125.0L295.6,124.4L295.0,123.6L295.7,123.3L295.8,122.2L295.2,120.6L295.0,119.5L294.6,118.5L294.0,117.3L293.3,116.1L293.4,115.6L294.2,116.3L293.7,115.0L293.4,114.4L293.7,113.6L293.7,112.5L294.2,112.5L295.5,111.5L296.7,110.7L297.4,110.7L298.8,110.3L299.3,110.0L300.9,109.7L301.7,108.7L302.3,107.8L303.0,106.4L303.9,107.1L303.8,106.1L304.4,105.6L305.2,104.7L305.7,104.2L306.1,104.1L307.1,103.8L308.4,104.9L309.6,105.0L309.9,103.6L310.2,103.1L311.2,102.2L312.6,102.1L311.8,101.3L313.0,101.4L314.4,102.0L315.3,102.2L316.3,102.0L317.0,102.4L316.3,103.3L316.1,103.7L315.4,104.7L316.3,105.6L317.6,106.2L318.6,106.8L319.3,107.4L320.9,107.4L321.3,106.4L321.7,105.0L321.6,104.3L321.7,102.9L321.7,102.4L322.1,101.3L322.5,100.7L322.9,101.8L323.2,102.3L323.6,103.4L323.6,103.8ZM197.0,41.9L196.3,42.3L196.2,43.1L195.1,43.3L193.8,43.5L192.2,42.9L191.0,43.2L189.9,43.1L189.6,42.7L189.9,42.4L190.5,42.4L192.1,42.3L192.9,42.5L192.9,41.7L193.6,41.1L194.9,41.0L196.0,41.3L197.0,41.4L197.0,41.9ZM225.0,50.3L225.7,50.5L226.1,51.3L225.0,50.7L225.0,50.3ZM227.4,48.8L228.0,48.6L229.1,48.7L230.1,49.5L229.6,49.8L229.2,51.0L228.9,51.7L228.0,51.2L228.1,50.4L226.5,51.2L226.0,50.4L225.9,49.8L225.6,49.2L225.0,48.8L226.0,48.9L226.6,48.8L226.4,48.1L227.4,48.8ZM209.3,94.5L209.0,92.8L209.9,92.3L210.5,92.8L210.8,93.4L210.1,94.1L209.3,94.5ZM183.3,38.7L185.0,38.5L186.2,39.2L185.8,39.9L184.8,40.0L183.6,39.6L182.7,39.2L183.3,38.7ZM182.7,83.7L181.6,83.2L181.5,80.7L181.1,79.8L180.9,79.0L181.4,78.5L182.2,78.1L182.8,77.8L183.6,78.7L183.6,79.7L183.2,80.6L182.7,81.5L182.7,83.7ZM177.2,80.4L176.0,80.1L175.2,80.2L174.6,79.6L174.8,78.6L175.6,77.5L176.0,76.5L176.9,76.5L177.8,75.8L178.9,75.0L179.7,75.1L180.3,75.6L181.0,76.7L182.2,77.4L181.9,78.4L181.2,78.9L180.0,79.0L179.2,79.1L177.1,79.0L177.2,80.4ZM272.7,68.0L272.3,68.5L272.1,68.8L271.8,67.8L270.5,67.2L270.3,68.2L269.7,68.1L269.0,67.9L268.5,66.4L268.1,65.5L268.9,64.8L268.6,63.6L269.8,64.0L270.9,64.9L272.4,65.0L271.5,65.9L271.7,67.0L272.1,66.4L272.7,68.0ZM202.7,45.8L203.3,46.1L205.6,46.3L207.2,45.8L208.6,46.3L207.7,47.4L207.1,47.9L206.1,48.7L204.5,48.4L203.0,48.7L202.4,47.7L202.4,47.4L203.0,46.8L202.4,46.0L202.7,45.8ZM102.5,66.2L102.0,65.7L101.8,64.8L102.5,65.7L102.5,66.2ZM102.2,63.4L101.0,63.2L102.2,63.2L102.2,63.4ZM103.0,63.4L102.6,64.0L102.2,63.1L103.0,63.4ZM199.0,45.1L199.1,45.6L199.5,46.4L199.0,46.6L198.6,47.4L197.3,46.6L196.5,46.0L195.8,45.2L196.3,45.0L197.0,44.8L198.6,44.9L199.0,45.1ZM203.5,36.1L205.5,35.7L206.6,34.8L207.1,34.2L209.2,34.1L209.9,34.2L211.0,34.9L211.4,35.8L211.7,36.2L212.7,36.6L211.5,36.8L211.5,37.3L210.9,38.0L210.6,38.7L209.3,38.6L208.6,38.6L207.5,38.4L205.3,38.1L204.0,38.4L203.5,38.0L203.8,37.3L203.5,36.5L203.5,36.1ZM90.9,72.2L91.0,72.0L91.5,71.5L91.7,71.6L91.9,71.9L91.8,72.5L91.8,73.0L91.4,73.7L91.1,74.1L90.8,73.0L90.9,72.2ZM117.2,112.0L115.6,112.8L113.7,111.8L112.2,112.9L111.2,110.4L111.0,109.0L110.4,107.6L110.6,105.7L110.7,105.0L111.1,103.6L111.3,102.6L111.2,101.0L112.0,100.7L113.4,99.9L114.6,100.5L114.6,101.6L116.8,102.6L117.9,103.2L118.9,103.5L119.5,104.4L119.7,105.1L119.8,106.3L121.6,106.9L122.3,107.6L122.3,109.0L122.1,110.0L121.8,109.9L120.0,109.3L117.7,110.5L117.3,112.2L117.2,112.0ZM122.4,120.2L124.8,117.9L126.4,116.9L125.9,115.5L125.6,115.2L125.7,114.0L125.0,114.0L124.5,113.6L124.2,112.4L123.1,112.3L122.1,110.7L122.1,110.0L122.3,109.0L122.3,107.6L121.6,106.9L119.8,106.3L119.7,105.1L119.5,104.4L118.9,103.5L117.9,103.2L116.8,102.6L114.6,101.6L114.6,100.5L113.4,99.9L112.0,100.7L111.2,101.0L109.9,101.1L109.5,99.5L107.8,100.1L106.8,99.5L106.4,98.4L106.3,97.3L106.9,96.6L107.0,95.7L108.3,94.6L109.2,94.3L110.6,91.6L110.4,90.5L110.0,89.5L110.7,89.4L110.2,88.9L112.1,88.3L112.7,88.3L113.1,88.7L114.5,89.2L115.4,88.7L115.9,88.1L116.6,87.6L115.6,86.9L115.2,85.9L116.1,86.0L117.2,86.0L119.0,85.5L119.3,84.8L120.0,85.0L120.2,85.6L120.2,86.4L120.3,87.8L121.0,88.7L121.6,88.5L122.3,88.3L123.2,88.1L124.0,88.2L123.9,87.8L124.4,87.6L125.5,87.7L126.2,87.6L126.6,87.9L127.4,87.5L128.3,85.8L128.9,86.3L130.0,88.3L129.3,89.8L131.4,90.2L132.2,90.6L135.1,91.6L135.4,92.7L138.5,92.9L141.5,93.7L143.5,95.1L144.8,95.5L145.3,97.3L144.4,99.6L142.3,102.2L141.3,103.1L141.1,105.7L140.7,107.9L140.2,109.6L139.1,111.9L138.0,113.0L135.4,113.4L133.5,114.1L131.5,115.9L131.5,117.2L131.1,118.7L129.3,121.0L127.7,122.2L126.6,123.8L126.8,122.7L125.4,121.5L124.0,120.9L122.4,120.2ZM294.2,85.5L295.5,84.6L295.3,85.7L294.7,86.0L294.2,85.5ZM271.7,62.2L272.0,63.2L270.4,63.1L268.8,62.9L269.5,62.0L270.7,61.9L271.7,62.2ZM205.6,108.5L206.2,109.3L207.7,110.5L208.0,111.5L209.4,112.1L207.1,113.6L206.5,114.6L205.8,115.2L205.0,115.7L203.7,115.4L202.8,115.5L202.1,116.3L200.9,116.8L200.8,115.9L199.9,114.8L200.9,111.8L201.7,108.2L203.6,108.3L204.5,107.9L205.3,107.7L205.6,108.5ZM195.3,82.6L196.3,82.2L196.7,82.5L198.4,81.7L198.8,81.0L200.1,81.0L201.7,79.4L202.9,78.9L203.6,79.9L203.4,80.7L203.8,81.3L205.1,82.2L205.8,83.0L206.5,84.1L207.4,84.8L206.4,84.8L205.3,84.8L204.8,85.1L203.3,85.4L202.7,85.4L201.7,85.8L200.3,85.3L198.9,85.3L198.5,86.5L197.1,86.3L196.0,87.7L195.9,87.0L195.0,86.1L194.5,85.3L194.5,84.5L194.8,83.6L195.3,82.6ZM116.3,43.4L118.0,43.6L117.1,44.0L115.6,43.3L116.3,43.4ZM118.2,40.9L116.4,40.6L115.8,40.0L118.2,40.7L118.2,40.9ZM56.5,41.5L54.3,41.2L53.1,40.5L51.9,40.0L51.6,39.2L53.3,39.6L54.6,40.0L56.1,40.9L56.5,41.5ZM123.9,39.3L123.9,39.8L124.2,40.4L125.5,40.4L126.2,41.5L127.0,41.8L126.9,43.3L125.8,43.2L125.8,42.2L124.0,43.1L123.7,42.4L120.7,42.4L121.2,41.7L121.6,40.9L123.3,38.7L124.6,38.4L123.9,39.3ZM47.3,36.0L47.3,36.0L48.3,35.9L48.8,37.8L47.8,37.4L46.9,36.6L46.8,35.8L47.3,36.0ZM100.7,27.8L99.9,28.3L99.7,27.9L100.5,27.6L100.7,27.8ZM98.1,27.3L96.2,27.8L96.7,27.1L98.1,27.3ZM94.8,24.3L95.5,24.6L97.2,25.2L98.4,26.0L99.9,26.3L97.5,26.3L95.9,26.4L94.1,26.4L93.6,26.0L94.1,24.3L94.8,24.3ZM104.1,22.9L102.8,22.4L104.1,21.7L104.9,22.4L104.1,22.9ZM84.4,20.9L82.4,20.9L80.2,20.6L81.8,19.9L83.4,20.3L84.4,20.9ZM89.5,20.5L90.8,20.7L91.7,22.1L93.7,22.1L94.5,20.1L97.4,20.3L98.8,21.3L98.7,22.4L96.7,23.6L94.2,23.4L93.0,24.8L91.5,25.9L89.3,26.4L88.1,27.2L85.8,29.1L85.3,31.1L87.2,32.2L89.1,32.7L92.0,33.5L93.9,34.3L96.6,34.8L97.6,35.7L98.6,37.8L100.9,38.5L100.9,35.9L101.8,34.9L103.5,33.5L102.7,31.9L102.7,30.1L101.9,27.7L104.3,27.7L106.2,27.6L108.3,28.5L110.4,28.9L110.7,31.0L112.4,31.8L114.8,30.1L116.2,30.6L118.6,33.0L119.5,34.2L122.0,35.1L123.1,36.2L124.2,36.7L123.6,38.2L121.2,38.9L118.3,39.9L114.6,39.7L112.8,40.5L110.0,42.3L109.7,43.0L113.4,40.9L115.8,41.3L115.2,43.0L116.8,44.3L119.5,43.0L120.2,44.1L116.7,45.3L114.6,46.5L113.8,45.5L114.0,44.7L112.2,44.3L111.8,42.6L110.8,42.6L109.7,44.1L108.9,44.7L108.5,45.0L105.1,45.0L103.6,45.9L103.2,46.4L101.3,46.4L101.0,46.7L101.1,47.1L98.7,47.8L97.3,48.3L96.9,48.0L97.1,47.6L97.9,46.4L97.4,44.7L96.5,44.0L96.1,43.9L95.9,43.5L95.4,43.6L95.2,43.4L94.3,42.8L92.6,42.1L90.7,42.0L89.2,41.7L87.4,41.5L85.7,41.3L85.2,40.6L84.8,41.0L79.3,41.0L73.0,41.0L67.0,41.0L63.0,41.0L57.2,41.0L55.1,40.0L52.6,39.2L52.1,37.7L50.7,36.4L49.5,35.2L50.0,34.1L47.3,32.3L45.7,31.1L44.5,30.2L42.5,31.1L41.0,30.0L39.0,29.7L39.0,20.3L42.5,21.0L44.4,20.7L47.1,20.5L50.2,19.8L51.6,20.0L52.6,19.6L55.6,19.8L56.9,20.4L58.5,20.2L62.4,21.0L64.8,21.1L64.7,22.1L69.2,22.2L71.1,22.6L71.2,21.7L73.0,21.3L74.7,21.4L76.8,21.9L80.1,22.2L81.4,21.6L83.9,21.8L84.5,21.9L85.8,20.9L83.5,19.9L84.8,18.1L87.1,18.7L87.6,20.3L89.5,20.5ZM65.8,16.9L67.6,17.0L70.1,17.0L71.8,18.3L71.6,16.9L73.5,16.9L75.2,18.3L77.2,19.5L78.9,20.4L77.9,20.9L75.8,21.1L72.9,20.9L68.5,21.4L66.1,21.0L63.9,20.8L63.3,19.9L66.3,19.8L65.7,19.4L62.1,19.5L63.9,18.7L60.6,18.4L62.1,17.3L65.8,16.9ZM75.5,16.6L73.1,16.5L74.7,16.4L75.5,16.6ZM103.7,16.9L102.7,17.1L100.5,17.3L99.1,16.7L99.6,16.2L103.7,16.9ZM93.4,16.8L95.1,16.7L99.4,17.3L101.2,17.6L104.4,17.8L105.9,18.7L108.8,19.1L112.1,19.9L111.2,21.3L115.1,22.2L118.1,23.1L116.1,25.0L113.3,23.6L111.9,24.3L114.3,25.4L115.3,26.6L113.7,27.1L112.6,27.1L113.8,28.1L109.0,27.1L108.1,26.3L105.2,25.3L102.3,25.8L102.1,24.7L106.0,24.5L106.1,23.7L107.1,22.3L105.2,21.4L103.8,20.9L101.8,20.2L100.5,20.1L95.1,20.0L91.3,19.6L91.5,18.8L89.8,17.8L91.6,16.5L93.4,16.8ZM79.6,16.2L82.6,16.2L81.9,17.0L83.3,18.3L80.7,18.6L77.5,17.5L79.6,17.3L79.6,16.2ZM86.8,17.2L84.6,17.9L84.0,16.6L85.5,15.9L89.5,16.1L86.8,17.2ZM59.5,18.6L56.4,18.7L54.5,17.7L56.1,16.3L58.5,15.6L62.4,15.8L64.5,16.5L60.8,17.5L59.5,18.6ZM86.4,15.0L84.4,15.3L83.7,14.6L86.0,14.7L86.4,15.0ZM81.5,13.3L82.3,14.3L80.2,15.1L79.1,14.4L77.4,13.7L80.0,13.4L81.5,13.3ZM71.8,13.8L73.1,14.0L74.3,14.5L70.3,15.2L66.3,15.6L68.2,14.8L62.3,14.8L64.6,13.5L69.2,14.5L69.5,13.6L71.5,13.3L71.8,13.8ZM85.3,12.9L88.4,13.2L89.0,13.9L90.8,14.4L93.6,14.5L97.2,14.2L99.9,14.7L99.5,15.3L96.8,15.4L91.8,15.6L87.6,15.2L87.1,14.1L84.0,13.6L83.3,12.8L85.3,12.9ZM63.8,12.4L62.9,13.5L60.1,13.9L57.1,13.9L58.8,13.1L62.4,12.5L63.8,12.4ZM86.2,12.5L83.8,12.4L85.6,12.2L86.2,12.5ZM69.8,12.3L66.5,12.3L68.7,11.8L69.8,12.3ZM70.3,11.4L67.5,11.6L68.5,11.2L70.3,11.4ZM84.2,11.9L81.9,11.9L81.4,11.1L83.2,11.2L84.2,11.9ZM79.9,11.7L78.7,12.0L74.8,11.6L74.6,11.1L76.5,10.8L79.9,11.7ZM93.0,10.3L92.8,11.0L89.2,11.8L86.0,11.2L86.9,10.6L83.9,10.3L84.0,9.4L85.7,9.0L87.6,8.7L90.5,9.5L93.0,10.3ZM111.5,6.9L116.3,7.1L118.1,7.6L113.2,8.3L114.5,8.5L110.5,9.4L106.8,10.4L103.1,10.7L103.8,11.0L103.7,11.8L101.6,12.5L100.4,13.0L102.1,13.2L96.8,13.5L92.4,13.6L90.4,13.0L91.7,12.1L95.0,12.5L92.0,11.6L94.6,11.0L93.5,10.3L95.8,9.8L98.2,9.5L92.4,9.5L89.8,8.7L88.4,8.1L91.1,7.9L94.5,7.3L96.8,7.7L98.9,7.0L103.8,6.8L107.2,6.8L111.5,6.9ZM189.6,42.5L189.5,42.9L190.4,43.1L189.9,43.7L189.0,44.0L188.3,43.8L187.3,44.2L186.5,43.6L186.0,43.3L186.7,42.5L187.5,42.4L188.5,42.2L189.6,42.5ZM111.4,142.6L112.4,144.9L112.7,145.3L111.4,145.6L110.0,145.2L107.7,144.5L105.3,142.8L107.6,143.7L109.4,143.6L110.7,142.5L111.4,142.6ZM111.8,111.5L112.9,112.7L112.7,114.0L111.6,116.2L111.7,116.9L110.3,118.5L110.1,120.3L109.9,123.1L110.2,124.2L109.6,126.0L108.9,127.6L108.6,128.9L108.1,130.8L107.9,132.3L108.5,133.8L108.7,134.4L108.3,135.0L108.1,136.9L107.7,138.2L106.6,139.3L107.0,140.7L107.7,141.4L110.5,142.1L110.5,142.3L109.2,142.9L108.6,143.9L106.3,142.8L105.1,142.3L105.0,141.0L104.4,138.7L105.9,136.9L105.3,135.8L106.8,134.5L106.6,132.1L105.7,133.2L106.3,129.9L106.5,128.3L106.8,127.1L108.1,123.9L108.3,120.9L108.5,118.9L109.3,115.7L109.9,111.4L109.6,108.3L110.4,107.6L111.0,109.0L111.2,110.4L111.8,111.5ZM290.3,71.3L288.7,71.5L289.1,70.2L290.8,69.9L290.6,70.7L290.3,71.3ZM307.7,40.2L310.6,41.3L312.5,42.2L315.0,41.5L314.1,42.8L313.1,44.9L311.0,45.0L311.1,47.1L310.6,47.6L309.6,47.6L308.2,48.5L306.9,48.2L305.1,49.4L302.9,50.4L301.1,51.1L301.4,50.2L301.6,49.1L299.6,50.1L298.0,50.8L298.1,51.9L298.9,52.6L300.8,52.1L302.4,52.5L301.1,53.3L299.7,54.4L300.2,55.6L301.2,57.5L301.9,59.1L301.5,59.9L301.9,61.0L301.1,61.9L299.6,64.3L297.3,66.4L294.8,67.3L293.8,67.5L291.8,68.4L290.4,69.7L289.6,69.0L288.5,68.3L287.0,68.2L286.7,67.2L285.3,66.6L283.5,67.3L282.2,67.5L281.8,68.8L281.2,68.6L280.4,68.4L279.2,67.9L278.9,66.9L277.6,66.1L278.7,64.1L278.7,62.5L277.9,61.7L276.2,61.6L276.1,60.5L274.6,60.7L272.5,62.1L271.3,62.0L270.0,61.7L268.8,62.7L268.1,62.1L265.8,61.8L264.2,61.2L263.3,60.5L261.5,59.6L259.7,59.1L258.5,57.4L259.2,57.0L258.9,55.7L256.2,54.1L255.2,52.9L254.8,52.0L254.3,51.4L253.7,50.6L253.8,50.1L255.5,49.4L256.9,48.9L258.5,48.4L260.3,47.7L260.9,46.8L261.9,44.7L263.2,42.7L265.7,42.5L266.6,41.5L267.8,40.7L268.9,41.9L271.0,43.1L270.9,44.7L273.5,45.0L275.3,45.8L276.3,47.3L279.5,47.5L281.8,47.5L284.5,48.1L286.1,47.9L289.2,47.5L291.1,46.6L291.7,45.9L291.9,44.9L293.5,45.2L296.0,44.3L297.4,43.3L299.7,43.3L298.9,42.3L297.3,42.3L295.7,42.3L296.2,40.9L297.9,40.5L299.3,39.4L300.7,38.0L300.2,37.2L302.2,36.6L305.1,36.8L306.6,38.2L307.3,39.3L307.7,40.2ZM177.1,85.0L176.0,84.8L174.2,85.0L172.5,85.7L172.4,84.8L172.4,84.3L171.7,83.8L171.6,83.1L171.6,82.3L171.8,81.9L171.8,81.5L171.9,80.6L171.8,79.9L172.1,79.7L173.1,79.9L173.5,79.6L173.9,79.9L174.6,79.6L175.2,80.2L176.0,80.1L177.2,80.4L177.0,82.6L177.2,84.6L177.1,85.0ZM193.1,87.7L192.4,87.8L191.3,87.7L189.8,86.9L188.9,86.1L188.5,85.5L188.8,84.5L189.5,83.5L190.5,82.9L191.7,83.0L192.1,82.2L192.8,81.3L193.2,80.4L193.6,79.2L194.5,78.1L194.2,77.5L194.5,77.1L195.0,78.4L195.5,80.0L194.6,80.1L194.0,80.5L195.0,81.2L195.4,82.3L194.8,83.6L194.5,84.5L194.5,85.3L195.0,86.1L195.9,87.0L196.0,87.7L195.1,88.0L193.1,87.7ZM210.8,86.5L211.2,87.8L210.5,88.4L209.9,89.4L209.6,90.6L209.3,91.6L209.1,92.3L209.3,93.3L209.5,95.4L209.6,96.5L210.7,98.3L209.0,98.4L208.4,99.2L208.5,100.8L208.6,102.0L209.6,102.2L208.9,103.2L208.2,102.3L207.2,101.6L205.8,101.8L204.8,101.2L204.3,101.0L203.5,100.9L202.4,101.0L202.2,99.9L201.8,98.9L201.7,97.9L200.5,97.3L200.1,96.9L199.4,97.2L199.0,98.0L198.1,98.0L197.1,97.5L196.6,96.6L193.4,95.9L192.7,96.0L192.2,95.8L192.5,95.2L193.0,94.8L193.6,94.5L194.2,94.8L195.2,94.3L196.0,93.5L196.4,91.7L197.5,90.7L197.7,90.1L197.8,89.1L198.1,87.6L198.5,86.5L198.9,85.3L200.3,85.3L201.7,85.8L202.7,85.4L203.3,85.4L204.8,85.1L205.3,84.8L206.4,84.8L207.4,84.8L208.4,85.7L209.2,85.6L210.0,85.8L210.8,86.5ZM193.0,94.8L192.3,94.6L191.1,94.0L191.5,92.8L192.5,92.4L193.1,92.4L194.3,92.0L194.3,90.6L194.3,88.8L193.3,88.7L193.1,87.7L195.1,88.0L196.0,87.7L197.1,86.3L198.5,86.5L198.1,87.6L197.8,89.1L197.7,90.1L197.5,90.7L196.4,91.7L196.0,93.5L195.2,94.3L194.2,94.8L193.6,94.5L193.0,94.8ZM104.6,90.2L103.7,89.6L102.6,89.6L102.1,89.2L101.0,88.3L101.3,87.7L102.1,87.3L102.9,86.2L102.7,85.3L102.7,84.2L102.1,82.8L102.6,82.4L102.5,81.5L103.2,81.4L104.3,80.6L104.5,79.4L105.7,78.9L106.6,78.8L107.8,78.0L108.6,77.6L108.7,78.2L107.8,78.9L107.1,79.5L106.7,80.8L107.3,81.4L107.6,82.0L107.6,82.6L108.0,83.0L109.9,83.0L111.0,83.8L112.3,83.7L112.5,84.4L112.2,85.5L112.7,86.5L112.2,87.2L112.8,87.7L112.9,88.9L112.5,88.0L110.2,88.3L110.8,89.0L110.5,89.3L110.0,90.2L110.6,91.1L110.1,94.3L109.3,93.7L109.2,92.3L108.2,92.2L106.9,92.3L105.9,91.0L104.9,90.1L104.6,90.2ZM97.0,81.8L96.3,81.3L96.4,80.9L95.7,80.5L95.3,80.1L95.1,80.2L94.7,80.2L94.2,79.9L94.3,79.2L94.3,78.9L95.1,79.0L95.6,79.0L96.1,79.3L96.6,79.6L97.5,80.4L97.1,80.9L97.1,81.2L97.1,81.6L97.0,81.8ZM97.7,66.8L99.4,66.9L100.7,67.6L102.0,67.7L103.5,68.8L104.4,69.0L105.1,69.3L105.7,69.9L104.4,70.1L102.2,70.1L102.5,69.3L101.5,69.0L100.7,68.4L99.5,68.0L97.8,67.6L97.2,67.3L96.1,67.8L95.5,68.2L95.6,67.8L96.2,67.2L97.5,66.9L97.7,66.8ZM212.7,54.9L212.9,54.6L214.6,54.3L214.0,54.9L213.7,55.0L213.5,55.0L213.4,54.8L212.9,54.9L212.7,54.9ZM214.0,54.9L213.0,55.4L212.3,54.9L212.9,54.9L213.4,54.8L213.5,55.0L213.7,55.0L214.0,54.9ZM197.0,41.4L196.0,41.3L194.9,41.0L193.6,41.1L192.5,40.5L192.2,39.7L193.3,39.3L194.3,38.9L195.0,38.9L196.2,39.3L196.7,39.8L197.6,39.6L198.4,40.0L198.6,40.5L198.2,40.7L197.9,41.0L197.5,41.2L197.0,41.4ZM189.9,35.0L191.0,35.6L192.0,35.8L193.6,35.9L194.4,36.8L194.4,37.4L194.6,38.3L194.6,39.0L194.1,39.1L193.0,39.5L192.4,40.0L193.0,40.7L193.2,41.6L193.0,42.4L192.6,42.3L191.4,42.5L190.4,42.7L189.6,42.5L188.3,42.4L187.6,41.7L186.7,40.8L186.2,40.1L186.2,39.2L186.6,38.1L187.1,36.9L187.1,36.3L188.1,36.5L188.6,35.6L189.3,35.2L189.9,35.0ZM223.1,77.3L223.3,78.0L223.1,78.5L222.6,78.9L221.8,78.9L221.7,78.4L222.4,77.5L223.1,77.3ZM192.7,34.4L191.0,34.6L192.4,33.9L192.7,34.4ZM190.9,33.5L190.4,33.8L189.9,35.0L188.5,35.0L188.1,33.5L188.5,32.9L189.8,32.6L190.5,32.8L190.4,33.4L190.9,33.5ZM108.3,70.3L109.2,70.1L110.0,70.4L110.8,70.7L111.2,71.0L111.3,71.8L110.4,71.6L109.9,71.8L109.3,71.6L108.6,72.4L108.3,72.0L108.1,71.4L108.4,70.8L108.3,70.3ZM192.0,66.5L185.7,70.4L183.2,70.9L182.7,70.1L181.8,69.4L175.1,65.0L171.3,62.4L171.3,61.2L173.9,60.3L175.1,59.5L176.4,58.4L177.4,57.9L178.9,57.3L178.3,56.1L177.8,54.8L179.9,54.1L181.5,53.4L184.8,53.1L186.3,52.9L187.7,53.1L188.2,53.6L188.1,55.3L187.6,56.7L188.4,57.5L189.5,59.7L189.9,61.0L189.8,62.3L189.7,63.5L189.9,64.6L190.3,65.6L191.6,65.9L192.0,66.5ZM99.7,93.4L100.0,92.2L99.0,92.2L99.1,91.1L99.6,90.3L99.9,89.2L101.1,88.6L102.3,89.2L103.4,89.7L104.2,89.9L104.8,90.9L103.4,92.6L101.5,93.9L100.8,95.0L100.0,94.3L99.5,94.1L99.7,93.4ZM214.9,60.5L214.4,61.7L213.9,62.4L213.1,61.6L212.3,60.2L213.3,62.3L214.5,64.4L215.7,66.1L215.5,66.9L216.9,68.0L209.0,68.0L205.0,64.3L204.7,60.0L204.8,58.9L206.5,58.4L208.5,59.0L209.7,58.8L211.0,58.4L212.0,59.1L213.0,59.0L214.3,58.8L214.9,60.5ZM222.4,77.5L221.6,76.5L220.9,75.9L219.3,75.5L218.5,75.5L217.6,75.8L216.3,75.2L216.9,73.0L217.9,72.6L219.0,73.2L219.8,74.6L221.7,76.1L222.6,77.0L222.8,77.5L222.4,77.5ZM171.0,48.1L170.6,47.0L173.2,46.4L175.7,46.6L178.1,46.6L180.3,47.4L181.8,47.7L183.0,48.1L180.8,49.0L180.1,49.9L180.1,51.3L179.3,52.4L177.9,53.3L175.6,53.3L174.6,54.1L173.8,53.6L172.5,52.9L172.8,52.2L172.6,51.6L172.5,50.4L173.0,49.8L173.1,48.9L173.3,48.1L172.6,48.2L171.7,47.7L171.0,48.1ZM204.3,32.2L204.1,31.7L203.3,30.8L205.9,30.4L208.0,30.5L207.4,31.3L207.3,32.5L205.6,32.2L204.3,32.2ZM217.9,75.0L219.1,75.3L220.0,75.5L221.2,76.2L222.0,77.1L222.0,77.9L221.7,78.6L222.3,79.0L222.8,79.1L222.9,80.0L223.7,80.8L227.8,82.0L223.7,85.0L222.1,85.8L221.2,86.1L219.9,86.2L218.9,86.5L218.4,86.4L216.9,85.6L215.8,85.2L215.3,84.5L214.3,83.2L213.6,82.3L213.3,81.6L214.0,81.3L214.3,79.4L214.8,78.7L215.9,77.4L216.4,75.6L217.9,75.0ZM208.6,20.9L210.0,22.3L210.2,24.2L210.4,25.8L211.5,27.1L210.2,28.2L206.3,29.6L202.9,30.2L201.3,29.3L201.1,27.4L202.4,26.2L205.4,24.9L203.9,24.0L203.5,22.1L200.6,20.9L202.4,21.2L204.7,21.4L206.2,20.2L209.0,20.2L208.6,20.9ZM358.4,107.3L358.6,108.2L357.4,108.2L357.7,107.4L358.4,107.3ZM359.4,106.8L358.6,106.6L359.4,106.4L360.0,106.6L359.4,106.8ZM0.1,106.5L0.0,106.1L0.1,106.5ZM118.8,141.8L120.8,141.5L122.3,141.6L120.6,142.2L119.3,142.3L118.8,141.8ZM127.4,87.5L126.6,87.9L126.2,87.6L125.5,87.7L125.8,86.8L125.6,85.8L126.0,84.2L127.1,84.6L128.3,85.8L127.4,87.5ZM189.6,47.8L188.8,48.4L188.7,47.4L189.6,47.8ZM183.6,39.6L184.8,40.0L185.9,40.6L186.7,40.8L187.6,41.7L187.2,42.6L186.8,42.7L186.0,43.7L186.8,44.0L187.1,44.7L187.0,45.7L187.4,46.3L184.6,46.6L183.0,47.5L180.7,47.2L178.5,47.0L178.6,46.0L177.8,42.9L175.5,42.0L176.7,41.1L178.1,40.2L181.3,39.9L182.5,38.9L183.1,39.2L183.6,39.6ZM191.1,94.0L189.4,92.1L188.8,90.8L189.3,89.7L189.8,88.9L191.3,87.7L192.4,87.8L193.1,87.7L193.3,88.7L194.3,88.8L194.3,90.6L194.3,92.0L193.1,92.4L192.5,92.4L191.5,92.8L191.1,94.0ZM174.3,35.4L173.0,35.9L172.6,35.4L173.3,34.8L174.3,35.4ZM177.0,31.4L176.9,32.3L177.8,33.1L177.9,34.1L178.9,35.4L180.2,36.7L181.7,37.3L181.1,38.2L180.6,39.2L177.5,39.5L176.4,39.8L174.8,40.0L175.7,38.8L176.6,38.6L174.7,38.0L175.2,37.2L176.9,36.6L177.1,36.0L176.4,35.4L174.9,34.9L175.0,34.2L174.4,33.7L174.2,32.2L175.8,31.4L177.0,31.4ZM221.6,48.5L221.5,47.4L220.3,46.9L220.1,46.4L222.4,46.8L223.9,47.4L225.5,47.5L226.4,48.1L226.6,48.8L226.0,48.9L225.0,48.8L222.6,48.4L221.6,48.5ZM181.1,84.1L178.9,85.0L177.1,85.0L176.8,83.7L177.4,81.8L177.0,79.6L178.8,79.0L179.6,78.9L180.0,79.3L180.4,80.5L180.7,81.7L180.6,83.1L181.1,84.1ZM171.6,82.3L171.1,82.7L170.6,82.5L170.2,81.5L169.8,81.6L169.5,81.3L169.4,80.7L168.9,80.0L167.8,80.1L167.4,80.4L166.8,81.1L165.9,80.1L165.4,79.8L165.2,79.1L165.3,78.5L165.9,78.3L166.3,78.2L166.3,77.8L166.8,77.4L167.7,77.6L168.3,77.6L168.5,77.9L169.0,77.8L169.4,78.1L170.1,77.9L170.7,77.7L171.1,77.9L171.6,78.6L171.4,79.2L171.7,79.2L172.0,79.8L171.7,80.2L172.2,81.4L171.7,81.7L171.7,82.3L171.6,82.3ZM163.2,76.8L164.4,76.4L164.9,76.1L165.6,76.4L166.2,76.5L165.3,76.7L164.5,76.7L164.1,76.9L163.2,76.8ZM164.9,79.0L163.9,78.5L163.7,78.0L163.3,77.6L164.2,77.5L166.3,77.4L166.2,77.9L166.1,78.3L165.6,78.5L164.9,79.0ZM189.5,89.0L189.6,87.7L191.3,88.9L189.5,89.0ZM203.7,54.3L205.0,54.6L205.7,54.8L206.2,55.0L204.7,54.9L203.7,54.3ZM206.6,48.4L206.1,49.2L204.9,49.1L204.4,49.9L203.3,50.0L202.6,49.7L203.4,50.8L203.5,51.5L204.0,52.3L203.4,52.6L203.2,53.6L201.7,53.2L201.1,51.7L200.2,50.7L200.6,49.9L201.0,49.4L201.7,49.1L202.6,48.9L203.0,48.7L204.5,48.4L206.1,48.7L206.6,48.4ZM133.2,7.4L140.1,6.8L144.9,6.4L159.2,7.3L153.5,7.7L148.6,8.0L155.2,8.2L157.9,8.3L159.4,8.5L167.2,8.3L163.7,9.4L160.0,9.8L161.1,10.6L160.3,12.4L160.0,13.1L160.2,13.9L159.3,14.8L158.4,15.8L159.2,16.5L156.4,16.7L157.7,17.8L155.2,17.7L157.9,18.5L156.5,19.5L154.5,18.6L153.6,19.8L157.7,19.9L152.3,21.5L148.2,21.9L145.8,23.3L143.0,24.1L140.2,24.5L139.3,25.9L137.2,27.3L137.1,28.9L135.2,30.0L131.7,29.1L130.1,27.6L127.9,25.7L126.3,23.9L126.0,22.8L128.5,21.3L129.1,20.1L127.4,20.6L125.3,20.4L125.6,19.2L128.6,19.4L126.0,18.5L124.2,18.3L124.7,17.0L122.7,15.3L121.4,14.5L116.6,13.8L111.5,13.9L108.6,13.0L113.2,12.6L106.7,12.0L110.6,11.1L114.7,10.2L112.8,9.5L117.8,8.7L119.7,8.0L125.9,7.8L129.6,7.6L133.4,8.0L133.1,7.8L133.2,7.4ZM89.9,76.3L88.8,76.1L87.8,75.5L87.9,74.9L88.3,73.9L89.6,73.6L89.3,73.3L88.5,72.7L89.0,72.2L90.9,72.2L90.8,74.1L91.4,74.3L91.8,74.3L90.8,74.9L90.9,75.3L90.4,75.6L90.3,75.9L89.9,76.3ZM120.2,81.6L121.5,82.7L121.9,83.2L122.9,84.0L122.1,85.2L122.0,85.9L122.7,86.7L123.5,88.1L122.7,88.1L121.9,88.5L121.5,88.7L120.4,88.2L120.0,87.2L120.5,86.0L119.9,85.4L119.8,84.8L118.6,84.0L118.8,83.3L119.7,83.0L119.4,82.2L120.2,81.6ZM92.7,77.0L92.2,76.6L92.1,76.1L91.5,76.2L91.2,75.9L90.6,75.6L90.8,75.1L91.3,74.7L91.9,74.3L92.4,74.1L92.6,74.2L93.6,74.2L94.0,74.0L94.6,74.1L95.0,74.0L95.6,74.2L96.2,74.6L96.9,75.0L96.4,75.1L95.8,75.3L95.4,75.3L95.1,75.2L94.9,75.4L94.5,75.9L94.2,76.2L93.7,76.2L93.2,76.2L93.1,76.7L92.7,77.0ZM198.8,44.1L199.4,44.8L198.6,44.9L197.0,44.8L196.3,45.0L195.8,45.2L196.5,46.0L197.3,46.6L198.6,47.4L197.5,47.2L196.0,46.5L195.4,45.7L194.9,44.9L194.0,45.2L193.7,44.5L194.4,44.5L194.9,44.5L195.3,44.3L195.8,43.8L196.9,43.6L198.5,44.2L198.8,44.1ZM106.8,70.1L108.3,70.3L108.3,71.2L108.3,71.7L107.6,71.8L106.5,71.8L105.5,71.7L106.6,71.5L107.7,71.3L107.2,70.5L106.8,70.1ZM196.2,43.1L196.3,42.3L197.0,41.9L197.9,42.2L198.8,41.9L199.7,41.7L200.2,41.7L200.8,41.4L202.1,41.6L202.7,42.1L201.6,43.0L200.2,43.9L198.8,44.1L197.6,44.0L196.6,43.5L196.2,43.1ZM300.7,100.2L299.0,99.6L300.4,99.7L300.7,100.2ZM304.4,100.1L303.5,100.2L304.0,99.3L305.1,99.1L304.4,100.1ZM297.9,98.1L298.9,98.3L298.0,98.9L296.7,99.0L297.6,98.4L297.9,98.1ZM302.9,98.1L301.3,98.9L299.9,98.4L301.3,98.5L302.9,98.1ZM288.6,96.8L290.8,96.5L293.0,97.6L295.7,98.4L293.5,98.3L291.5,98.3L289.4,97.7L288.3,97.8L286.3,96.9L286.1,95.9L288.1,96.3L288.6,96.8ZM314.7,96.2L314.1,96.1L314.5,95.4L314.7,96.2ZM307.2,93.5L306.2,93.6L307.0,93.1L307.2,93.5ZM310.5,93.1L310.0,93.4L308.6,93.4L308.1,92.8L310.5,93.1ZM314.1,91.2L315.5,93.4L317.4,91.7L319.2,92.1L321.0,92.6L321.0,99.1L319.1,98.1L317.6,98.4L318.7,97.3L317.9,95.4L315.2,94.5L313.4,94.0L312.8,93.7L312.0,92.8L313.8,92.5L312.2,92.2L310.9,91.4L311.9,90.7L314.0,90.8L314.1,91.2ZM305.2,88.6L303.7,89.8L301.1,89.6L300.0,90.5L301.5,91.0L303.3,91.1L302.4,91.5L302.5,93.2L303.2,94.7L302.6,95.6L302.7,94.5L301.5,94.6L300.9,93.6L300.3,92.9L300.4,95.5L299.4,95.4L299.5,93.5L298.8,92.8L299.3,91.4L300.0,89.4L301.7,89.0L304.1,89.1L305.2,88.6ZM308.7,88.9L308.1,89.6L308.4,90.8L307.7,90.3L307.6,88.2L308.0,88.4L308.7,88.9ZM297.9,88.2L297.8,89.2L297.5,90.8L296.5,92.5L296.0,93.7L294.5,93.5L293.3,93.1L291.7,93.0L290.2,92.9L289.6,91.3L289.0,89.6L289.7,88.0L290.5,89.2L291.8,89.1L292.9,88.5L294.6,88.6L295.5,86.8L297.0,85.7L297.3,86.8L297.9,88.2ZM285.8,95.9L283.9,95.0L282.2,93.6L280.9,92.1L279.3,89.8L278.6,88.2L277.2,86.7L275.4,85.0L275.9,84.6L278.4,85.7L279.7,86.8L281.7,87.9L283.1,89.4L283.4,90.7L284.4,91.1L284.9,92.3L286.1,93.1L285.8,95.9ZM257.8,54.5L258.8,56.5L259.2,57.5L258.7,58.5L261.1,59.8L260.1,61.2L262.0,62.1L264.7,62.8L266.0,63.4L268.1,63.6L268.0,62.6L268.7,61.9L268.8,62.9L270.4,63.1L272.0,63.2L271.7,62.2L273.4,61.4L275.4,61.0L276.6,61.2L277.3,61.7L277.1,62.3L276.4,62.7L275.2,64.0L274.6,65.3L273.3,65.9L273.1,67.3L272.7,68.0L271.9,66.4L271.2,66.5L271.9,65.9L271.8,64.9L269.9,64.7L269.4,64.0L268.2,64.2L268.3,65.1L268.7,65.8L268.9,67.1L268.9,68.3L267.0,68.5L266.5,69.8L263.9,71.7L262.2,73.0L261.7,73.7L260.3,74.1L260.2,76.2L259.9,77.9L259.3,79.7L259.2,80.8L257.9,81.7L256.6,81.1L255.7,78.7L254.9,77.3L254.4,75.4L253.1,72.1L252.8,69.6L251.2,69.2L249.2,67.9L249.3,67.2L248.8,65.6L250.8,64.8L250.2,63.5L250.6,62.0L252.8,61.0L254.4,59.0L255.3,57.7L254.1,56.6L254.2,55.3L256.9,55.3L257.8,54.5ZM173.8,36.1L173.2,37.7L170.0,38.2L170.3,36.1L172.4,34.9L172.4,35.9L173.8,36.1ZM233.9,52.8L235.5,52.0L236.6,51.9L238.4,52.5L240.4,53.5L241.2,54.3L240.5,56.3L240.5,57.0L240.9,58.5L241.8,59.3L241.4,60.7L242.7,61.7L243.2,62.8L241.9,63.8L239.6,64.6L237.4,64.3L236.5,62.9L234.7,63.5L232.5,62.4L230.9,61.2L229.6,60.0L228.6,60.1L228.0,59.0L227.8,58.3L226.1,57.0L225.6,55.3L226.1,54.3L224.8,52.8L224.4,51.7L224.8,50.3L225.5,51.1L226.5,51.2L228.1,50.4L228.0,51.2L228.9,51.7L230.1,52.6L232.3,53.3L233.9,52.8ZM225.4,54.0L226.2,54.9L225.4,56.0L227.3,57.5L227.7,59.0L228.0,59.5L228.0,60.0L226.6,60.9L221.9,58.8L219.2,57.8L221.0,55.6L221.3,53.6L222.3,52.8L223.9,52.7L224.8,52.8L225.4,54.0ZM165.5,23.5L166.4,24.9L162.2,26.3L160.0,26.4L158.2,25.6L157.8,24.9L155.7,24.4L157.9,23.6L160.9,23.7L163.8,23.5L165.5,23.5ZM215.7,57.3L215.2,57.5L215.2,58.2L214.9,58.6L215.4,58.9L214.3,58.8L214.5,58.4L215.0,57.2L215.1,56.9L215.6,56.7L215.8,57.1L215.7,57.3ZM195.5,51.8L195.3,52.9L194.3,53.0L192.4,52.4L193.7,52.0L195.5,51.8ZM189.2,48.8L189.7,50.8L188.8,51.1L188.4,49.6L188.7,49.1L189.2,48.8ZM192.4,43.2L193.7,44.0L193.1,44.3L192.4,45.1L192.6,45.9L194.0,47.2L195.9,48.0L195.9,48.5L197.5,49.1L198.5,49.8L197.7,49.7L196.4,50.2L197.1,51.1L196.1,52.0L195.7,51.8L196.1,51.0L195.4,50.0L194.7,49.4L193.6,48.8L192.1,48.3L190.5,47.1L189.7,46.0L188.4,45.8L187.4,46.3L187.0,45.7L187.1,44.7L186.8,44.0L187.8,44.2L188.5,44.0L189.2,43.6L190.4,43.5L191.0,43.2L192.2,42.9L192.4,43.2ZM102.4,71.5L103.6,71.8L103.1,72.1L102.2,72.1L101.8,71.5L102.4,71.5ZM215.5,57.6L216.8,57.7L219.2,57.8L217.0,58.5L217.7,59.7L216.7,60.1L216.1,60.8L214.9,60.5L215.4,58.5L215.5,57.6ZM314.6,55.9L314.2,56.8L313.3,56.7L312.4,57.0L312.9,55.9L313.9,55.6L314.6,55.9ZM321.0,52.9L320.8,54.2L319.0,55.3L315.8,56.5L315.1,55.4L312.2,56.1L312.0,56.9L310.7,59.0L310.4,57.7L309.4,56.7L310.9,55.8L312.6,54.6L315.7,54.5L317.4,53.2L319.4,51.8L319.9,49.4L321.4,48.6L321.9,50.8L321.0,52.9ZM323.9,45.8L325.3,45.6L324.1,47.0L321.6,47.3L320.0,48.4L320.3,46.7L321.7,45.2L323.1,45.5L323.9,45.8ZM251.0,47.7L249.1,48.6L248.3,49.3L246.7,48.8L246.0,48.0L244.9,46.3L242.0,46.5L240.2,45.2L238.5,44.4L236.0,48.7L234.8,48.0L232.9,47.9L232.4,48.0L232.5,47.2L230.9,46.0L230.3,45.4L231.3,44.8L233.0,44.7L233.0,43.1L231.2,43.0L229.1,43.6L228.7,42.9L227.3,42.3L227.0,40.8L227.5,39.5L228.7,39.4L232.3,38.3L235.7,39.4L238.4,38.9L239.9,39.2L241.6,38.7L240.9,37.6L241.7,37.0L241.4,36.0L245.7,35.4L249.1,34.6L251.2,35.9L253.5,36.0L254.4,36.5L256.5,35.8L260.0,39.1L261.9,39.2L263.9,39.1L265.1,39.9L266.8,40.2L266.6,41.5L265.7,42.5L263.2,42.7L261.9,44.7L260.9,46.8L260.3,47.7L259.1,47.1L256.0,47.0L254.2,46.7L253.5,47.5L251.2,47.3L251.0,47.7ZM221.0,90.9L220.9,92.1L220.3,92.6L219.8,93.7L219.2,94.7L217.7,93.1L213.9,91.0L214.2,89.5L215.0,88.1L214.5,86.4L214.6,85.2L215.8,84.7L216.2,85.6L218.1,86.4L218.7,86.4L219.6,86.6L220.8,85.7L221.9,86.1L221.0,90.9ZM251.0,47.7L251.8,47.2L253.6,46.9L255.6,47.1L257.7,47.0L259.6,47.5L260.1,47.9L258.2,48.8L256.5,49.6L254.8,49.6L254.0,50.3L251.8,50.7L249.5,50.5L250.6,50.1L251.8,49.9L251.9,48.6L250.4,48.5L251.0,47.7ZM283.5,79.4L282.6,77.8L283.0,75.8L285.2,75.7L286.5,75.4L287.6,76.5L285.8,78.4L285.2,79.1L283.5,79.4ZM308.3,51.4L309.5,53.2L309.1,54.9L307.4,55.5L306.4,55.1L306.1,53.3L306.2,52.3L306.7,52.2L307.8,51.7L308.3,51.4ZM200.8,47.9L200.6,48.1L200.3,47.7L200.3,47.2L200.6,46.8L201.0,46.9L201.3,47.1L201.6,47.3L201.7,47.6L201.6,47.8L200.8,47.9ZM228.0,60.0L228.1,60.7L227.7,61.5L226.6,60.9L228.0,60.0ZM285.2,75.7L285.6,74.4L284.7,72.6L283.2,71.7L282.4,72.1L281.1,72.5L281.3,70.5L280.5,69.9L280.3,69.2L281.3,68.8L281.7,67.7L282.8,68.3L284.4,69.2L284.2,70.4L285.1,71.3L286.6,73.4L287.6,74.8L286.5,75.4L285.2,75.7ZM215.8,56.7L215.5,56.9L215.5,56.1L216.0,55.4L216.6,55.8L215.8,56.7ZM172.3,85.6L171.0,85.2L169.2,83.9L168.8,82.9L169.3,82.1L170.0,81.6L170.7,82.1L170.8,82.7L171.3,82.3L171.5,82.6L171.4,83.5L172.0,83.9L172.5,84.7L172.3,85.6ZM194.9,67.1L193.6,67.0L191.6,65.9L190.3,65.6L189.9,64.6L189.7,63.5L189.8,62.3L189.9,61.0L189.5,59.7L190.1,59.0L190.6,58.2L191.4,57.6L192.7,57.2L193.9,57.3L195.7,58.6L198.0,59.2L199.6,59.5L199.8,58.2L200.9,57.3L202.9,57.4L203.6,57.8L204.9,58.1L204.8,58.9L204.7,60.0L205.0,64.3L205.0,70.0L203.8,70.4L195.9,66.6L194.9,67.1ZM261.8,82.5L261.2,83.8L259.9,83.2L260.1,80.2L261.3,81.4L261.8,82.5ZM209.0,119.0L209.0,119.7L208.3,120.2L207.7,120.6L207.5,119.2L208.5,118.6L209.0,119.0ZM202.7,35.7L202.8,35.1L201.3,34.8L202.2,33.7L204.9,33.6L205.5,33.9L206.6,34.8L205.5,35.7L203.5,36.1L202.7,35.7ZM186.0,39.9L186.2,40.5L185.7,40.5L186.0,39.9ZM201.1,34.0L201.6,32.6L203.3,33.0L204.3,32.2L205.6,32.2L207.3,32.5L207.9,33.2L207.1,34.2L205.5,33.9L204.9,33.6L202.2,33.7L201.1,34.0ZM174.8,54.2L176.4,54.6L177.8,54.8L178.3,56.1L178.9,57.3L177.4,57.9L176.4,58.4L175.1,59.5L173.9,60.3L171.3,61.2L171.2,62.3L171.2,62.9L170.3,63.1L169.4,63.0L168.3,63.9L167.5,65.2L165.8,67.7L165.2,68.5L163.0,68.6L163.4,67.8L163.7,67.0L164.6,65.6L165.2,64.9L165.6,63.7L166.9,62.4L167.4,62.0L169.1,61.2L170.4,60.1L170.6,58.0L171.3,56.8L173.1,55.9L174.1,54.2L174.8,54.2ZM206.6,41.8L207.5,41.5L208.7,41.9L209.1,42.5L209.6,43.1L209.8,43.5L209.8,43.7L209.1,43.5L208.9,43.7L208.5,44.4L208.1,44.1L208.1,43.2L207.2,42.2L206.6,41.8ZM229.5,102.5L230.1,103.6L230.5,105.2L230.2,106.0L229.7,105.7L229.8,106.9L229.4,108.0L228.5,110.5L227.5,113.8L226.3,115.2L224.8,115.3L223.8,114.5L223.3,112.8L223.4,111.3L223.9,110.8L224.5,109.4L224.0,108.3L224.3,106.9L224.9,106.2L225.9,105.8L226.9,105.2L228.0,104.1L228.3,103.8L228.9,102.5L229.5,102.5ZM82.9,64.1L82.3,65.7L82.1,67.6L82.6,68.6L83.5,70.1L84.1,71.2L85.6,71.9L87.2,71.5L88.6,71.1L89.5,70.1L89.7,69.0L91.5,68.5L92.9,68.5L93.2,69.2L92.4,70.4L92.4,71.0L91.9,71.5L91.5,71.5L91.0,72.0L90.9,72.2L89.0,72.2L88.5,72.7L89.3,73.3L89.6,73.6L88.3,73.9L87.9,74.9L87.8,75.5L86.1,74.1L84.7,73.9L83.4,74.3L82.0,73.9L80.3,73.3L78.3,72.4L77.5,72.0L76.1,71.3L74.5,70.1L74.6,69.5L74.7,68.9L74.4,68.1L74.0,67.2L72.1,65.5L70.7,64.4L70.7,63.6L69.6,62.8L68.8,62.1L67.8,61.0L67.2,60.0L66.9,58.8L65.8,58.5L65.1,58.6L65.3,59.8L66.4,60.9L66.7,61.2L67.0,61.6L67.5,62.5L68.4,63.3L69.0,64.7L69.3,65.7L70.2,66.2L70.6,66.8L70.0,67.2L69.1,66.0L67.8,65.3L67.7,64.0L66.5,63.2L66.2,63.1L64.9,62.3L65.4,62.3L65.8,61.4L64.5,60.4L63.7,59.2L62.9,57.5L65.3,57.3L66.7,58.0L71.0,58.7L71.8,58.2L73.9,58.6L75.0,59.4L75.5,60.4L76.9,61.0L78.3,60.2L79.5,61.3L80.5,62.5L81.0,63.6L82.5,64.2L82.9,64.1ZM200.6,48.1L200.8,47.9L201.6,47.8L202.4,47.7L203.0,48.7L202.6,48.9L201.7,49.1L200.6,48.9L200.6,48.1ZM167.8,75.4L168.3,74.6L169.3,74.9L170.3,74.7L174.5,74.5L174.5,73.7L173.5,65.0L178.4,67.2L182.1,69.9L183.1,70.3L184.3,70.8L183.7,73.8L182.7,74.6L181.0,75.0L179.7,75.1L178.9,75.0L177.8,75.8L176.9,76.5L176.0,76.5L175.6,77.5L174.8,78.6L174.6,79.6L173.9,79.9L173.5,79.6L173.1,79.9L172.1,79.7L171.7,79.5L171.6,79.1L171.4,78.9L171.2,78.2L170.9,77.7L170.4,77.8L169.8,78.2L169.1,77.8L168.7,77.9L168.5,77.6L168.4,76.9L167.9,76.0L167.8,75.4ZM279.5,69.8L278.3,70.3L277.4,71.6L278.5,73.2L278.5,74.7L278.4,75.4L279.2,76.7L279.6,78.1L278.6,80.1L278.8,78.6L278.5,76.9L277.8,75.2L277.2,73.1L275.4,74.3L274.2,74.0L274.3,71.8L273.7,70.3L272.4,69.3L272.7,68.7L273.2,67.7L273.3,67.0L274.1,66.1L274.6,64.8L275.1,63.4L277.1,62.9L277.4,62.1L277.9,61.7L278.7,62.5L278.7,64.1L277.6,66.1L278.9,66.9L279.2,67.9L280.4,68.4L281.2,68.6L280.1,69.6L279.5,69.8ZM199.8,47.5L199.3,47.8L199.2,48.0L198.4,47.5L198.7,46.8L199.2,46.5L199.6,46.8L200.3,47.1L200.1,47.4L199.8,47.5ZM267.8,40.7L270.7,39.7L273.1,39.5L274.8,40.0L277.3,40.3L277.8,39.0L280.0,38.4L282.1,38.7L283.7,39.9L285.9,39.6L287.9,40.2L289.4,40.7L291.6,40.6L294.4,39.8L295.5,40.2L296.2,40.9L295.7,42.3L297.3,42.3L298.9,42.3L299.7,43.3L297.4,43.3L296.0,44.3L293.5,45.2L291.9,44.9L291.7,45.9L291.1,46.6L289.2,47.5L286.1,47.9L284.5,48.1L281.8,47.5L279.5,47.5L276.3,47.3L275.3,45.8L273.5,45.0L270.9,44.7L271.0,43.1L268.9,41.9L267.8,40.7ZM214.6,101.5L216.5,101.7L217.5,101.6L218.4,101.3L220.3,100.3L220.4,101.8L220.6,104.2L220.5,105.4L219.5,106.7L217.4,107.6L215.9,108.8L214.8,109.8L215.2,111.3L215.4,112.1L215.5,113.1L215.6,113.7L215.0,114.5L213.0,115.4L212.7,116.1L212.8,116.7L212.0,116.3L211.8,115.5L211.7,113.7L212.2,111.1L212.7,110.3L212.6,109.4L212.8,108.0L212.3,106.4L211.6,106.1L210.3,105.9L210.2,104.8L213.8,104.5L214.5,104.6L214.3,105.5L215.0,106.8L215.8,105.9L215.3,103.9L214.6,103.6L214.6,101.5ZM167.8,75.4L166.6,74.0L165.4,73.4L164.4,73.6L163.5,73.9L163.7,72.8L163.7,70.9L163.7,69.9L162.9,69.0L167.1,68.7L167.1,66.7L168.0,64.1L171.3,62.6L173.5,65.0L174.5,73.7L174.5,74.5L170.3,74.7L169.3,74.9L168.3,74.6L167.8,75.4ZM214.6,101.5L214.6,103.6L215.3,103.9L215.8,105.9L215.0,106.8L214.3,105.5L214.5,104.6L213.8,104.5L212.7,103.7L213.3,102.4L213.3,100.8L213.2,99.7L213.7,99.4L214.3,100.2L214.6,101.5ZM281.1,83.8L281.8,84.2L282.4,83.9L283.4,85.1L283.3,86.3L283.5,87.2L284.2,88.4L283.5,88.8L281.4,87.2L280.7,86.1L280.2,84.7L280.1,83.5L281.1,83.8ZM298.6,85.5L297.0,85.7L295.5,86.8L294.6,88.6L292.9,88.5L291.8,89.1L290.5,89.2L289.7,88.0L291.2,88.1L291.8,87.1L293.7,86.1L294.7,86.0L295.3,85.7L295.5,84.6L296.7,83.1L297.6,83.6L298.3,84.3L299.1,85.0L298.6,85.5ZM196.3,118.6L195.2,117.1L194.7,115.4L194.4,112.7L193.9,111.7L192.8,109.7L191.8,108.1L192.2,107.1L193.5,107.0L194.2,107.4L199.0,107.8L203.2,107.5L204.7,107.4L205.1,107.7L204.2,107.9L203.2,107.9L200.9,108.3L199.9,111.8L199.9,118.5L198.5,119.0L197.4,118.8L196.8,118.1L196.3,118.6ZM345.8,111.1L347.1,112.2L346.2,112.1L344.8,111.1L344.0,110.1L345.0,110.5L345.8,111.1ZM182.2,78.1L181.0,77.1L180.4,76.0L180.4,75.1L181.4,74.7L183.6,74.4L184.3,73.1L185.7,70.4L192.0,66.5L194.1,67.5L195.1,68.7L195.5,69.3L195.7,70.0L195.2,73.4L193.5,75.6L194.0,76.6L194.5,77.1L194.2,77.5L193.3,76.4L192.3,77.0L191.0,76.6L190.1,76.7L189.0,77.2L187.3,76.9L186.4,76.5L184.4,76.3L184.0,77.0L183.6,78.3L182.5,77.8L182.2,78.1ZM188.5,85.2L187.1,85.5L185.9,85.7L185.0,84.4L183.6,83.7L182.7,82.1L182.9,80.9L183.7,79.9L183.8,79.3L183.6,78.3L184.0,77.0L184.4,76.3L186.4,76.5L187.3,76.9L189.0,77.2L190.1,76.7L191.0,76.6L192.3,77.0L193.3,76.4L194.2,77.5L194.5,78.1L193.6,79.2L193.2,80.4L192.8,81.3L192.1,82.2L191.7,83.0L190.5,82.9L189.5,83.5L188.8,84.5L188.5,85.2ZM94.3,78.9L93.5,78.2L92.8,77.5L92.4,76.9L92.7,77.0L93.1,76.7L93.2,76.2L93.7,76.2L94.2,76.2L94.5,75.9L94.9,75.4L95.1,75.2L95.4,75.3L95.8,75.3L96.4,75.1L96.9,75.0L96.7,75.3L96.6,76.0L96.4,76.9L96.5,77.6L96.3,78.1L96.1,78.6L96.3,79.1L95.8,79.2L95.3,78.9L94.4,78.8L94.3,78.9ZM186.1,36.5L187.1,36.9L186.6,38.1L186.2,39.2L185.0,38.5L183.3,38.7L184.7,36.9L186.1,36.5ZM208.2,18.8L210.0,19.8L209.4,20.8L209.0,20.2L206.2,20.2L204.7,21.4L202.4,21.2L200.6,20.9L199.9,21.6L197.7,22.0L196.1,22.7L193.6,25.2L193.6,26.0L191.9,26.9L192.6,28.7L191.5,30.6L190.4,30.5L187.0,31.9L185.3,30.3L185.9,27.4L190.5,25.5L194.8,22.2L199.2,20.2L203.0,19.8L206.4,19.0L208.2,18.8ZM204.7,12.1L200.7,12.3L200.8,11.7L203.3,11.9L204.7,12.1ZM198.3,10.3L199.0,11.4L197.6,12.4L195.9,13.2L194.7,12.3L191.2,11.1L193.2,10.0L195.1,10.3L197.0,9.9L198.3,10.3ZM205.4,9.6L205.9,10.5L200.1,10.4L198.5,10.1L200.5,9.4L202.9,9.3L205.4,9.6ZM268.1,62.1L268.2,63.2L267.2,63.6L265.3,63.3L263.3,62.6L261.1,61.6L260.5,60.3L261.5,59.6L263.3,60.5L264.2,61.2L265.8,61.8L268.1,62.1ZM353.0,130.9L354.0,130.9L354.2,131.8L353.2,133.0L353.1,133.9L351.5,134.2L350.6,135.9L349.3,136.6L347.8,136.3L346.5,135.9L348.3,134.1L349.7,133.6L351.1,132.5L351.9,131.5L352.8,130.5L353.0,130.9ZM354.6,126.2L355.4,126.5L356.0,127.6L357.4,128.0L358.5,127.7L358.0,129.2L356.9,129.4L356.9,130.1L356.0,131.3L355.1,131.4L355.2,130.5L353.8,129.5L354.6,128.8L354.7,127.4L354.3,126.5L353.1,125.2L353.0,124.5L354.3,125.3L354.6,126.2ZM238.9,68.9L238.0,69.5L237.7,70.3L237.7,71.1L236.6,71.4L236.3,72.1L235.3,72.4L234.8,73.0L233.6,73.3L232.8,72.7L235.0,70.0L235.2,67.3L235.5,66.5L236.0,65.9L235.9,65.1L236.8,65.8L238.1,66.3L239.2,67.0L239.8,67.5L239.4,68.3L238.9,68.9ZM236.4,64.1L236.1,63.9L236.5,63.7L236.4,64.1ZM255.2,52.9L256.2,54.1L256.9,55.3L254.2,55.3L254.1,56.6L255.3,57.7L254.4,59.0L252.8,61.0L250.6,62.0L250.2,63.5L250.8,64.8L248.8,65.6L247.4,66.1L246.4,64.6L242.9,64.8L241.9,63.8L243.2,62.8L242.7,61.7L241.4,60.7L242.5,60.7L244.1,60.7L245.0,60.5L246.4,59.3L247.7,58.7L248.6,58.3L249.3,58.1L249.7,56.9L249.9,56.0L251.2,55.7L251.6,54.8L251.3,53.9L252.9,53.3L254.6,53.0L255.2,52.9ZM102.1,82.8L101.6,81.9L101.6,81.6L100.9,81.0L100.2,81.4L99.6,81.7L100.0,82.5L99.6,82.7L98.9,82.2L98.5,82.3L97.9,81.8L97.2,81.7L97.0,81.8L97.2,81.4L97.3,81.1L97.1,80.5L97.8,80.8L98.2,81.0L98.6,81.2L99.5,80.9L100.4,80.4L100.9,80.5L101.9,80.8L102.6,81.3L102.8,82.1L102.2,82.3L102.1,82.8ZM110.4,107.6L109.6,108.3L108.5,107.4L104.8,105.3L103.6,103.8L102.9,102.2L101.0,98.4L100.2,97.2L98.8,96.1L98.6,94.7L99.7,93.4L99.5,94.1L100.0,94.3L100.8,95.0L101.5,93.9L103.4,92.6L104.8,90.9L104.9,90.1L105.9,91.0L106.9,92.3L108.2,92.2L109.2,92.3L109.3,93.7L110.1,94.3L109.1,94.4L107.1,95.3L106.8,96.1L106.3,96.9L106.0,97.5L107.0,99.0L107.4,99.5L108.7,100.1L109.5,101.0L110.5,101.0L111.1,102.9L111.1,104.5L110.8,105.3L111.0,106.5L110.4,107.6ZM306.4,81.6L306.5,82.8L305.8,82.7L305.7,84.0L304.2,83.8L304.2,82.6L303.3,82.6L302.1,83.1L302.3,82.0L303.5,81.3L304.6,81.5L305.5,81.0L306.2,80.7L306.4,81.6ZM304.0,79.7L303.3,80.7L302.4,80.3L302.8,79.7L303.5,79.1L304.1,78.8L304.0,79.7ZM298.5,80.7L297.7,80.9L299.0,79.6L299.7,79.4L298.5,80.7ZM301.9,78.1L303.1,78.4L302.6,79.3L302.0,79.1L301.9,78.1ZM305.5,77.8L305.0,78.7L305.3,79.6L304.8,79.2L304.3,78.5L304.9,78.2L305.2,77.5L305.5,77.8ZM301.5,76.9L300.8,77.3L301.2,76.6L301.5,76.9ZM301.3,71.5L302.2,71.5L302.2,72.2L302.3,73.7L301.5,74.9L302.3,75.8L304.0,76.2L304.2,77.0L303.3,77.0L302.7,76.8L301.1,76.4L300.7,75.7L300.7,75.2L300.1,75.0L299.9,73.6L300.4,72.4L301.3,71.5ZM335.9,96.8L335.2,96.5L334.5,95.1L334.8,95.3L335.5,96.2L335.9,96.8ZM332.0,95.5L331.3,95.8L330.2,96.3L328.9,96.0L328.4,95.4L329.8,95.5L330.1,95.0L330.8,95.5L331.6,94.8L332.1,94.1L332.3,94.9L332.0,95.5ZM327.2,97.4L328.7,99.1L329.3,99.5L329.7,99.9L330.7,100.6L329.8,100.4L327.9,100.1L326.6,98.9L324.7,97.6L323.3,98.2L322.6,99.3L321.0,99.1L321.0,92.6L324.6,93.9L325.8,94.9L327.6,96.1L327.0,96.7L327.2,97.4ZM333.1,94.5L332.6,94.2L332.0,93.5L330.7,92.7L331.5,92.8L332.2,93.2L333.0,94.0L333.1,94.5ZM195.0,38.9L194.7,37.9L194.1,37.0L194.1,36.2L196.4,35.5L198.6,35.3L199.7,35.6L202.7,35.7L203.5,36.1L203.8,36.9L203.2,37.5L203.5,38.4L203.9,39.6L202.5,40.5L202.6,40.9L200.9,40.7L199.8,40.8L198.9,40.6L198.4,40.0L197.6,39.6L196.7,39.8L196.2,39.3L195.0,38.9ZM113.7,71.5L114.4,71.8L113.4,72.0L112.8,71.6L113.7,71.5ZM310.6,47.6L310.4,47.7L309.7,48.4L309.2,49.3L308.6,49.8L307.5,50.2L307.4,50.8L308.3,51.4L307.8,51.7L306.7,52.2L306.2,52.3L305.6,52.2L305.2,52.1L304.7,51.9L305.2,51.3L305.4,50.6L304.7,50.3L305.1,49.4L306.9,48.2L308.2,48.5L309.6,47.6L310.6,47.6ZM171.0,48.1L171.7,47.7L172.6,48.2L173.3,48.1L173.1,48.9L173.0,49.8L172.5,50.4L172.6,51.6L172.8,52.2L172.5,52.9L171.6,53.0L171.3,52.3L170.7,51.6L170.6,50.6L171.0,49.8L171.2,48.8L171.0,48.1ZM117.3,112.2L117.7,110.5L120.0,109.3L121.8,109.9L122.1,110.7L123.1,112.3L124.2,112.4L124.5,113.6L125.0,114.0L125.7,114.0L125.6,115.2L125.2,116.6L123.5,117.5L121.4,117.1L122.2,115.2L120.0,114.0L117.3,112.2ZM230.8,65.2L231.0,64.0L231.6,64.2L231.4,65.4L230.8,65.2ZM202.7,42.1L203.8,42.0L204.9,42.3L205.9,42.0L206.6,41.8L207.2,42.2L208.1,43.2L208.1,44.1L208.7,44.7L209.6,44.7L209.1,45.2L208.6,46.3L207.2,45.8L205.6,46.3L203.3,46.1L202.7,45.8L202.7,45.4L202.1,45.5L201.5,44.8L200.8,44.3L201.0,43.7L202.1,42.3L202.7,42.1ZM323.6,39.3L323.2,40.7L323.5,43.2L322.7,43.3L321.9,43.2L321.9,41.1L322.2,39.0L321.7,36.7L322.2,35.8L322.9,36.3L323.2,38.2L323.6,39.3ZM202.7,35.7L199.7,35.6L201.3,34.8L202.8,35.1L202.7,35.7ZM5.0,23.4L5.4,22.9L10.1,24.0L7.5,24.6L7.0,25.7L5.3,25.4L3.8,24.6L1.6,24.6L1.3,23.9L0.6,24.6L0.0,21.0L5.1,22.8L5.0,23.4ZM360.0,19.2L358.7,18.9L360.0,19.2ZM1.3,19.1L0.0,18.5L1.0,18.4L2.3,18.9L1.3,19.1ZM323.6,16.8L320.0,16.7L320.8,16.2L323.5,16.5L323.6,16.8ZM330.7,14.9L328.0,15.2L326.4,14.5L330.7,14.9ZM325.1,14.4L320.6,15.2L317.0,14.7L318.8,13.9L325.1,14.4ZM237.5,19.3L233.7,19.2L231.6,18.5L232.5,17.8L234.4,16.4L235.9,15.4L237.9,14.4L244.5,13.6L248.2,13.1L248.2,13.8L241.6,14.7L237.0,16.7L235.6,18.5L237.5,19.3ZM287.0,13.0L288.2,13.3L293.3,13.8L293.9,14.7L290.2,15.5L290.6,16.0L293.0,16.0L294.0,16.4L298.8,16.4L303.2,17.0L305.4,16.4L308.6,17.0L308.5,18.0L311.3,19.2L313.9,18.6L317.5,18.7L319.9,18.5L320.5,17.2L330.4,18.4L337.0,19.0L339.8,19.5L340.9,20.6L344.1,20.3L347.8,20.4L350.8,21.0L350.5,19.9L355.7,20.1L360.0,21.0L360.0,25.0L357.4,25.4L358.9,26.7L359.5,27.4L357.4,27.5L353.7,28.3L350.7,29.7L348.9,29.4L345.8,29.8L343.5,30.1L342.0,31.8L343.2,32.4L342.1,33.9L342.1,35.1L340.0,36.8L338.2,38.1L336.4,38.3L335.4,34.6L336.8,32.6L338.4,31.9L341.9,29.7L344.5,27.4L342.7,28.4L339.3,28.2L334.2,30.2L332.8,31.1L331.3,30.5L328.5,30.8L322.2,31.0L315.1,35.3L317.2,36.0L318.8,35.7L321.3,36.9L320.6,38.8L320.1,41.6L318.2,43.7L315.5,46.0L313.5,47.2L312.3,46.7L310.8,47.8L310.6,47.1L311.3,45.9L311.9,44.7L313.8,43.9L314.5,42.4L313.4,41.8L311.0,42.2L309.4,40.6L307.3,39.3L306.6,38.2L305.1,36.8L302.2,36.6L300.2,37.2L300.7,38.0L299.3,39.4L297.9,40.5L295.5,40.2L294.4,39.8L291.6,40.6L289.4,40.7L287.9,40.2L285.9,39.6L283.7,39.9L282.1,38.7L280.0,38.4L277.8,39.0L277.3,40.3L274.8,40.0L273.1,39.5L270.7,39.7L267.8,40.7L266.8,40.2L265.1,39.9L263.9,39.1L261.9,39.2L260.0,39.1L256.5,35.8L254.4,36.5L253.5,36.0L251.2,35.9L249.1,34.6L245.7,35.4L241.4,36.0L241.7,37.0L240.9,37.6L241.6,38.7L239.9,39.2L238.4,38.9L235.7,39.4L232.3,38.3L228.7,39.4L227.5,39.5L227.0,40.8L227.3,42.3L228.7,42.9L229.1,43.6L227.7,44.4L227.6,46.3L228.6,48.2L227.8,48.8L226.7,48.2L225.8,47.9L224.5,47.3L223.8,47.3L220.9,46.6L220.0,46.6L217.5,45.3L217.4,44.6L217.7,43.4L219.1,42.7L218.3,42.5L219.7,42.1L219.7,41.2L220.1,40.4L218.0,40.1L216.6,39.8L215.4,39.2L214.2,38.7L214.4,38.2L212.7,37.8L212.2,37.9L211.5,37.3L211.5,36.8L212.7,36.6L211.7,36.2L211.4,35.8L211.0,34.9L209.9,34.2L209.2,34.1L207.9,33.2L207.3,32.5L207.4,31.3L208.0,30.5L208.1,29.5L211.1,27.6L210.0,26.4L209.5,25.1L209.1,23.1L208.4,21.6L209.4,20.8L212.1,20.1L216.5,20.9L221.1,22.5L220.0,23.7L213.9,23.2L214.8,24.1L214.9,25.6L217.0,26.2L216.5,25.2L219.6,25.5L219.8,24.5L223.0,23.6L224.5,23.2L224.2,22.0L226.3,21.8L225.6,22.4L226.3,23.3L228.1,22.5L233.7,21.1L233.5,21.8L235.4,21.6L238.8,21.1L241.1,21.1L240.6,20.2L244.9,20.8L249.2,21.4L248.1,20.6L247.3,20.1L246.7,19.0L249.2,17.2L252.6,17.2L251.8,18.6L252.8,19.6L253.7,21.6L251.3,23.7L252.8,23.5L254.2,22.7L254.5,21.7L253.8,20.9L254.4,19.4L254.9,17.9L255.2,17.1L255.3,18.7L255.9,18.1L259.7,17.7L260.6,17.4L262.3,16.2L266.8,16.1L267.2,14.9L270.3,14.4L273.2,14.0L276.7,14.1L280.8,13.6L282.0,12.7L286.1,12.6L287.0,13.0ZM285.1,11.7L281.3,10.8L282.8,10.7L285.1,11.7ZM231.1,9.5L228.9,9.7L227.6,10.0L227.1,9.4L226.8,9.2L228.5,9.5L230.0,9.1L231.1,9.5ZM279.9,11.1L275.0,11.0L272.5,9.9L273.8,9.0L277.9,9.3L279.9,11.1ZM210.4,91.1L210.8,92.3L209.9,92.3L209.0,92.8L209.3,92.2L209.6,91.3L210.4,91.1ZM171.2,62.9L171.3,62.3L171.3,62.6L168.0,64.1L167.1,66.7L167.1,68.7L162.9,69.0L163.0,68.6L165.4,68.1L166.1,66.3L168.0,64.0L168.6,63.1L169.8,63.1L170.6,62.9L171.2,62.9ZM222.8,73.7L222.3,72.9L221.8,72.2L220.9,70.5L219.8,69.7L219.0,68.0L218.5,66.3L217.5,65.7L217.2,64.9L216.6,64.2L215.6,62.6L214.6,61.9L214.8,61.0L216.1,60.8L216.7,60.1L217.7,59.7L217.0,58.5L219.2,57.8L221.9,58.8L226.6,60.9L227.7,61.5L228.8,62.3L229.5,62.9L230.2,63.7L230.2,64.4L230.7,65.0L231.1,65.4L231.6,65.8L232.0,67.0L235.2,67.3L235.0,70.0L229.1,71.4L227.5,72.9L226.7,72.7L225.4,72.7L224.1,72.6L223.4,72.4L223.2,73.3L222.8,73.7ZM214.0,80.5L213.8,80.0L213.2,79.3L213.2,77.8L212.7,78.0L212.3,78.3L211.9,79.5L210.8,80.3L209.6,79.9L209.0,80.4L208.0,80.6L207.1,80.4L206.5,80.4L205.8,79.6L204.8,80.2L204.2,81.3L203.8,81.3L203.4,80.7L203.6,79.9L202.9,78.9L202.5,78.3L202.3,77.4L202.0,77.0L202.2,76.2L202.3,75.7L203.0,74.3L203.8,70.4L205.0,70.0L209.0,68.0L216.9,68.0L217.0,69.2L217.5,71.4L218.4,72.0L217.2,72.7L216.8,73.7L216.4,75.6L215.9,77.4L214.8,78.7L214.3,79.4L214.0,80.5ZM214.0,80.5L213.8,81.6L213.0,82.2L214.1,82.8L214.7,83.4L214.6,85.2L213.4,86.2L211.9,86.4L210.8,86.5L209.7,85.4L208.7,85.5L208.0,85.6L207.2,84.4L206.2,83.5L205.1,82.5L204.6,81.8L204.2,81.3L204.8,80.2L205.8,79.6L206.5,80.4L207.1,80.4L208.0,80.6L209.0,80.4L209.6,79.9L210.8,80.3L211.9,79.5L212.3,78.3L212.7,78.0L213.2,77.8L213.2,79.3L213.8,80.0L214.0,80.5ZM163.3,76.4L162.4,75.3L163.3,74.4L163.9,73.5L164.9,73.4L165.9,73.7L167.2,74.7L167.9,76.0L168.4,76.9L168.5,77.6L167.8,77.5L167.5,77.7L166.3,77.4L164.2,77.5L163.3,77.6L164.1,76.9L164.5,76.7L165.3,76.7L166.2,76.5L165.6,76.4L164.9,76.1L164.4,76.4L163.3,76.4ZM342.1,100.5L341.7,100.8L341.9,100.4L342.1,100.5ZM340.9,99.9L339.8,99.8L339.7,99.2L340.7,99.6L340.9,99.9ZM341.7,99.6L340.8,98.9L340.9,98.3L341.7,99.6ZM339.9,98.3L339.1,98.1L338.2,97.4L338.8,97.6L339.9,98.3ZM337.5,97.3L336.9,97.2L336.5,96.6L337.5,97.3ZM168.6,83.2L167.6,82.7L166.9,81.8L167.3,80.7L167.6,80.2L168.1,80.0L169.2,80.3L169.3,81.0L169.5,81.7L169.3,82.1L168.8,82.9L168.6,83.2ZM92.2,76.6L91.5,76.8L90.7,76.5L89.9,76.3L90.3,75.9L90.4,75.6L90.9,75.7L91.5,76.0L91.9,76.0L92.3,76.2L92.2,76.6ZM228.9,80.5L227.8,82.0L223.7,80.8L222.9,80.0L222.8,79.1L223.5,78.7L224.1,79.6L225.6,79.3L227.5,78.9L228.4,78.6L228.9,78.6L228.9,80.0L228.9,80.5ZM229.7,78.4L230.7,78.0L231.1,78.3L231.0,79.4L230.6,80.8L229.5,83.2L227.7,85.8L225.6,88.0L223.1,89.7L221.8,91.4L221.0,90.9L221.9,86.1L222.8,85.7L225.0,85.0L228.5,81.2L228.9,80.0L228.9,78.6L229.3,78.6L229.7,78.4ZM200.9,44.6L201.6,45.2L202.5,45.3L202.5,45.6L202.4,46.0L203.0,46.8L202.4,47.4L202.4,47.7L201.6,47.8L201.7,47.6L201.6,47.3L201.3,47.1L201.0,46.9L200.6,46.8L200.3,47.2L200.0,46.9L199.5,46.6L199.5,46.4L199.1,45.6L199.0,45.1L199.1,44.5L199.6,43.8L200.8,44.3L200.9,44.6ZM122.9,84.0L124.2,84.0L126.0,84.2L125.6,85.8L125.8,86.8L125.5,87.7L124.4,87.6L123.9,87.8L124.0,88.2L122.8,87.2L122.4,86.7L122.1,85.4L122.7,84.9L122.9,84.0ZM198.9,40.5L199.3,40.4L200.4,40.6L201.6,40.5L202.3,41.2L201.9,41.7L200.5,41.4L199.8,41.8L199.2,41.9L198.7,42.1L197.5,42.1L196.9,41.5L197.1,41.2L197.9,41.1L198.1,41.0L198.4,40.7L198.9,40.5ZM193.8,43.5L195.1,43.3L196.2,43.1L196.6,43.5L195.7,44.2L195.3,44.5L194.6,44.4L193.7,44.5L193.7,44.0L193.8,43.5ZM202.2,24.3L201.4,25.6L197.8,27.3L197.8,29.4L197.9,31.0L196.4,33.0L194.7,33.8L192.9,34.6L191.8,32.6L191.5,30.6L192.6,28.7L191.9,26.9L193.6,26.0L193.6,25.2L196.1,22.7L197.7,22.0L199.9,21.6L200.6,20.9L203.5,22.1L203.9,24.0L202.2,24.3ZM212.1,116.7L211.3,117.3L210.7,116.4L211.0,115.7L211.8,115.8L212.1,116.7ZM218.8,56.6L215.7,57.3L215.8,57.1L216.1,56.2L216.4,55.4L215.9,54.6L216.4,54.0L216.7,53.2L218.2,53.1L219.5,53.3L221.2,52.9L221.8,53.4L221.4,54.4L218.8,56.6ZM194.5,77.1L194.0,76.6L193.5,75.6L195.2,73.4L195.7,70.0L195.5,69.3L195.1,68.7L195.9,66.6L203.8,70.4L203.0,74.3L202.3,75.7L202.2,76.2L202.0,77.0L202.3,77.4L202.5,78.3L202.9,78.9L201.7,79.4L200.1,81.0L198.8,81.0L198.4,81.7L196.7,82.5L196.3,82.2L195.3,82.6L195.1,81.6L194.5,81.0L194.2,80.0L194.9,80.0L194.9,79.1L194.9,77.8L194.5,77.1ZM181.9,83.9L180.8,83.7L180.5,82.6L180.5,81.3L180.4,79.8L180.0,79.0L180.8,79.5L181.4,80.2L181.7,80.9L181.9,83.9ZM282.6,77.8L280.8,77.4L280.1,76.6L279.5,79.2L279.2,80.8L280.3,81.7L281.0,83.1L282.1,83.8L281.2,84.3L280.3,83.4L279.7,83.2L279.0,82.1L278.3,82.2L278.3,81.0L279.0,79.0L279.2,77.2L279.1,76.2L278.2,74.9L278.9,73.8L277.9,72.4L277.8,71.4L279.0,70.2L280.1,69.6L280.6,70.5L281.0,71.6L282.1,71.9L283.0,72.0L284.0,71.8L284.8,73.6L285.5,75.3L284.3,75.6L282.3,76.6L282.6,77.8ZM251.0,49.8L249.6,49.9L250.5,50.4L253.7,50.6L254.3,51.4L254.8,52.0L253.9,52.6L252.6,53.0L251.8,53.3L251.5,52.1L251.3,51.7L250.4,51.9L250.1,52.4L249.2,52.8L248.1,53.0L248.4,51.8L247.4,50.9L248.5,50.5L249.3,49.3L250.5,49.5L251.0,49.8ZM241.2,54.3L240.4,53.5L238.4,52.5L236.6,51.9L235.5,52.0L233.9,52.8L233.9,51.0L233.4,50.0L232.9,49.1L234.7,49.0L233.7,47.9L232.8,48.9L232.9,47.9L234.8,48.0L236.0,48.7L236.9,48.2L238.6,47.2L240.1,48.6L241.5,48.7L242.4,49.9L244.2,51.1L246.5,52.0L246.2,52.6L245.6,52.7L244.5,53.7L243.2,54.1L242.2,54.7L241.2,54.3ZM305.0,98.9L305.9,98.4L307.0,98.3L307.0,98.7L305.1,99.4L305.0,98.9ZM118.3,79.2L119.1,79.1L118.2,80.0L118.3,79.6L118.3,79.2ZM189.5,59.7L188.4,57.5L187.6,56.7L188.1,55.3L188.2,53.6L189.5,52.7L190.2,53.3L191.1,53.1L190.6,54.1L190.8,55.2L190.3,56.2L191.1,56.7L191.4,57.6L190.6,58.2L190.1,59.0L189.5,59.7ZM216.9,48.7L219.5,48.9L221.6,48.5L223.6,48.9L223.7,49.7L224.8,50.3L224.4,51.7L224.8,52.8L223.9,52.7L222.3,52.8L220.7,52.9L218.7,53.3L217.1,53.4L216.7,53.7L216.1,54.2L216.2,53.3L214.7,53.2L212.5,53.9L210.6,53.3L209.7,53.9L207.6,53.3L206.3,51.8L206.2,50.5L208.8,49.5L211.1,48.9L213.5,48.0L216.9,48.7ZM207.2,49.3L206.0,49.4L206.3,49.1L206.1,48.2L208.0,48.0L209.0,48.7L207.6,49.0L207.2,49.3ZM301.8,65.6L300.7,68.0L300.1,66.4L301.5,64.7L301.8,65.6ZM213.9,91.0L217.7,93.1L219.2,94.7L218.8,96.5L219.5,97.1L219.3,98.0L219.5,99.1L220.3,100.3L218.4,101.3L217.5,101.6L216.5,101.7L214.6,101.5L213.9,99.7L212.8,99.2L211.6,98.8L210.7,98.3L209.6,96.5L209.5,95.4L209.8,94.5L210.5,93.6L210.7,93.0L210.5,92.4L210.8,91.7L210.8,91.0L213.9,91.0ZM211.9,91.0L210.4,91.1L209.6,91.3L209.8,90.2L210.1,88.9L210.9,88.2L210.8,87.7L211.2,86.2L212.7,86.2L214.0,85.8L214.6,86.9L214.7,88.8L213.9,89.9L211.9,91.0ZM211.8,37.9L212.4,37.7L213.8,37.7L214.1,38.4L215.0,38.8L215.4,39.4L217.4,39.6L218.6,40.1L220.1,40.7L219.9,41.8L218.8,42.2L218.2,42.9L216.8,43.3L215.0,43.7L215.5,44.6L216.3,44.9L213.9,45.6L213.5,45.0L212.6,44.5L213.3,43.9L211.7,43.3L210.4,44.0L209.1,44.5L208.2,44.5L208.7,44.1L208.9,43.6L209.2,43.6L210.0,43.6L209.9,43.3L209.4,42.7L209.1,42.2L208.3,41.8L206.9,41.6L206.2,41.8L205.2,42.1L204.4,42.0L203.1,41.9L202.6,41.8L202.3,41.2L202.8,41.0L203.4,39.7L204.0,39.3L204.0,38.4L205.3,38.1L207.5,38.4L208.6,38.6L209.3,38.6L210.6,38.7L210.9,38.0L211.8,37.9ZM122.4,120.2L124.0,120.9L125.4,121.5L126.8,122.7L126.6,123.8L125.1,125.0L123.8,124.9L122.2,124.5L121.7,123.3L121.9,122.0L122.4,120.2ZM24.5,70.9L24.1,70.9L23.9,70.3L24.1,70.0L24.1,69.7L24.6,69.9L24.9,70.1L25.2,70.5L24.5,70.9ZM23.9,69.4L23.4,69.2L23.3,69.1L23.7,69.1L23.9,69.4ZM23.2,68.8L22.7,68.9L23.2,68.8ZM22.3,68.7L22.2,68.7L21.7,68.5L22.0,68.3L22.3,68.7ZM20.7,68.0L20.2,67.9L20.4,67.8L20.7,68.0ZM85.2,40.6L85.7,41.3L87.4,41.5L89.2,41.7L90.7,42.0L92.6,42.1L94.3,42.8L95.2,43.4L95.4,43.6L95.9,43.5L96.1,43.9L96.5,44.0L97.4,44.7L97.9,46.4L97.1,47.6L96.9,48.0L97.3,48.3L98.7,47.8L101.1,47.1L101.0,46.7L101.3,46.4L103.2,46.4L103.6,45.9L105.1,45.0L108.5,45.0L108.9,44.7L109.7,44.1L110.8,42.6L111.8,42.6L112.2,44.3L113.0,45.2L110.9,46.0L109.4,46.9L109.2,47.7L109.9,48.2L110.1,48.1L109.4,48.5L108.1,48.7L107.1,48.8L107.8,48.9L106.7,49.4L106.0,49.2L106.0,49.6L105.1,51.1L104.8,50.8L104.7,51.0L104.9,51.6L104.1,52.8L104.3,52.1L103.7,50.9L103.7,51.9L103.7,52.1L104.0,53.1L104.3,54.4L102.6,55.5L101.4,56.1L100.8,56.8L99.1,58.0L98.5,59.3L99.0,60.8L99.5,62.0L99.9,63.8L99.6,64.8L98.8,64.8L98.3,64.1L97.3,62.5L97.3,61.5L96.3,60.1L94.9,60.4L94.2,59.8L92.5,59.7L90.8,59.7L90.6,60.1L90.8,60.7L90.2,60.7L89.1,60.9L87.5,60.4L86.2,60.3L84.4,61.3L82.9,62.2L82.6,63.3L82.9,64.1L81.8,63.9L80.7,63.2L79.9,61.9L79.0,60.6L77.5,60.2L76.1,60.7L75.3,59.9L74.4,58.9L73.5,58.2L71.8,58.7L69.0,58.7L65.2,57.5L64.0,57.4L62.7,57.0L61.6,56.3L60.9,55.9L59.6,55.6L59.3,54.8L57.5,52.4L57.0,51.9L56.1,50.2L55.8,48.9L55.5,47.2L56.0,45.4L55.9,43.1L55.3,41.8L56.9,42.0L57.7,42.6L57.2,41.0L63.0,41.0L67.0,41.0L73.0,41.0L79.3,41.0L84.8,41.0L85.2,40.6ZM27.0,32.9L25.5,33.0L26.2,32.2L27.4,32.1L27.0,32.9ZM14.4,30.1L13.2,30.1L13.5,29.6L14.4,30.1ZM8.3,26.2L9.5,26.3L11.3,26.7L10.5,27.0L9.3,26.6L8.2,26.6L8.3,26.2ZM24.9,18.9L26.1,19.1L27.7,19.4L30.3,19.5L34.3,19.9L36.4,19.8L39.0,20.3L39.0,24.0L40.0,29.7L41.7,30.4L43.5,30.5L45.1,30.7L46.6,31.6L48.3,33.4L50.0,34.7L48.9,34.8L47.7,33.6L45.9,31.9L43.4,31.8L40.1,30.5L37.4,29.9L34.1,29.5L31.8,29.3L31.4,30.1L29.4,30.6L28.1,30.3L29.7,29.0L28.1,29.3L26.0,30.6L25.8,31.9L23.7,32.6L21.9,33.5L20.4,34.4L18.8,34.6L16.9,35.3L15.1,35.4L17.1,34.7L19.4,34.0L21.3,33.0L22.3,32.4L23.0,31.1L21.5,31.2L20.3,31.1L19.6,30.9L18.0,31.3L18.1,30.4L16.2,30.2L14.7,29.5L13.9,28.5L15.1,27.4L16.2,26.8L17.7,26.5L19.2,26.2L18.5,25.6L18.6,25.2L17.2,25.7L15.0,25.6L13.2,24.9L13.3,23.9L16.3,23.4L18.3,23.9L16.3,22.9L14.6,22.0L13.8,21.1L16.8,20.6L18.1,19.7L21.0,19.1L23.4,18.6L24.9,18.9ZM246.5,52.6L245.2,51.6L243.5,50.6L241.9,48.9L240.5,48.8L240.0,47.8L237.8,47.8L237.1,48.7L235.9,45.0L238.7,44.5L241.1,45.6L243.2,46.3L246.1,47.0L246.5,48.0L248.0,48.9L248.6,49.3L250.4,47.9L251.3,47.8L251.2,48.9L253.1,49.1L251.0,49.8L250.5,49.5L249.3,49.3L248.5,50.5L247.4,50.9L248.4,51.8L247.1,52.6L246.5,52.6ZM108.7,78.2L108.1,78.6L108.4,79.6L108.3,80.9L109.0,80.1L108.6,79.0L109.7,78.2L110.4,78.5L111.8,79.1L112.7,79.5L114.3,79.8L115.7,79.6L116.9,79.3L117.3,79.6L118.4,80.1L119.3,81.4L120.2,81.6L119.4,82.6L119.5,83.1L118.9,83.8L119.3,84.8L119.0,85.5L117.2,86.0L116.1,86.0L115.2,85.9L115.6,86.9L116.6,87.6L115.9,88.1L115.4,88.7L114.5,89.2L113.1,88.7L112.6,87.4L112.7,86.7L112.4,86.2L112.3,84.8L112.7,83.9L111.7,83.8L110.6,83.9L109.3,82.9L107.8,82.7L107.5,82.4L107.6,81.6L107.2,80.9L107.0,80.3L107.4,79.2L108.0,78.4L108.7,78.2ZM288.1,68.4L285.9,70.2L286.4,72.0L288.3,73.9L289.3,76.6L288.4,79.0L286.4,80.5L284.8,80.8L284.3,79.5L286.2,79.0L287.5,77.7L287.4,75.8L287.3,74.1L285.9,72.5L283.9,70.7L284.8,70.1L283.2,69.2L282.2,67.5L283.5,67.3L285.3,66.6L286.7,67.2L287.0,68.2L288.1,68.4ZM347.8,106.5L347.2,106.2L347.8,106.5ZM347.1,104.9L347.0,105.6L346.6,105.4L347.1,104.9ZM215.5,57.6L215.4,58.5L215.0,58.4L215.0,58.1L215.5,57.6ZM233.1,73.3L232.2,74.1L231.2,74.8L228.7,76.0L227.9,76.0L226.7,76.6L225.6,76.7L225.1,77.0L224.5,77.3L223.5,77.4L223.3,76.2L222.9,75.2L222.8,74.7L222.8,74.1L223.2,73.3L223.4,72.4L224.1,72.6L225.4,72.7L226.7,72.7L227.5,72.9L229.1,71.4L232.8,72.7L233.1,73.3ZM211.5,119.3L210.9,119.9L210.1,121.1L208.2,122.8L206.4,123.6L205.8,123.9L204.7,124.0L203.0,123.9L201.5,124.3L200.1,124.8L199.2,124.5L198.4,124.0L198.2,123.9L197.9,122.6L198.2,121.7L197.1,119.9L196.3,118.6L197.2,118.4L197.8,118.9L199.0,119.0L199.9,114.8L200.8,115.9L200.9,116.8L202.1,116.3L202.8,115.5L203.7,115.4L205.0,115.7L205.8,115.2L206.5,114.6L207.1,113.6L209.4,112.1L210.3,112.3L211.2,112.3L211.9,114.4L211.8,115.8L211.0,115.7L210.7,116.4L211.3,117.3L212.1,116.7L212.6,117.5L212.2,118.8L211.5,119.3ZM212.8,99.2L213.5,100.5L213.1,101.6L213.0,102.8L213.2,104.0L210.3,105.5L208.9,106.0L208.5,106.5L207.0,107.9L206.4,107.8L205.1,107.7L204.7,107.4L203.2,107.5L201.9,106.1L204.0,102.9L204.1,102.2L204.0,101.2L204.3,101.0L204.8,101.2L205.8,101.8L207.2,101.6L208.2,102.3L208.9,103.2L209.6,102.2L208.6,102.0L208.5,100.8L208.4,99.2L209.0,98.4L210.7,98.3L211.6,98.8L212.8,99.2ZM211.2,112.3L210.3,112.3L209.4,112.1L208.0,111.5L207.7,110.5L206.2,109.3L205.6,108.5L206.4,107.8L207.0,107.9L208.5,106.5L208.9,106.0L210.3,105.5L211.2,105.9L211.9,106.3L212.8,106.7L212.7,108.7L212.8,109.7L212.5,110.4L211.2,112.3Z"/>
</svg>